<?xml version="1.0" standalone="no"?>
<!DOCTYPE svg PUBLIC "-//W3C//DTD SVG 20010904//EN"
 "http://www.w3.org/TR/2001/REC-SVG-20010904/DTD/svg10.dtd">
<svg version="1.0" xmlns="http://www.w3.org/2000/svg"
 width="540.000000pt" height="540.000000pt" viewBox="0 0 540.000000 540.000000"
 preserveAspectRatio="xMidYMid meet">

<g transform="translate(0.000000,540.000000) scale(0.100000,-0.100000)"
fill="#000000" stroke="none">
<path d="M2600 4999 l-65 -7 65 2 65 1 0 -345 0 -345 -35 -7 c-19 -4 -50 -7
-67 -7 l-33 -1 0 128 0 128 -50 -6 c-27 -3 -52 -8 -54 -11 -3 -3 -6 -62 -7
-131 l-2 -126 -62 -11 c-79 -14 -77 -14 -67 7 4 9 6 169 3 354 l-6 337 25 4
c17 3 14 4 -12 6 -24 0 -40 -4 -46 -15 -5 -10 -23 -15 -51 -16 -43 0 -64 -19
-60 -56 1 -9 1 -24 0 -32 -2 -20 -30 29 -31 53 0 10 -6 20 -14 23 -14 5 -127
-16 -194 -37 -17 -6 -47 -11 -65 -11 -17 -1 -88 -22 -157 -48 -134 -49 -117
-47 -341 -40 -9 0 -19 14 -25 38 l-9 37 -170 0 -170 0 0 -45 c0 -45 0 -45 42
-54 39 -8 42 -10 36 -37 -3 -19 0 -34 11 -45 13 -13 16 -26 10 -58 -3 -22 -10
-43 -16 -44 -24 -10 -71 -58 -88 -93 -18 -34 -20 -59 -20 -221 0 -150 3 -188
16 -206 8 -12 22 -22 30 -22 15 0 64 -46 64 -61 0 -5 -25 -27 -55 -49 l-56
-41 3 -152 3 -152 26 -12 c48 -23 52 -35 41 -119 -7 -53 -17 -83 -31 -98 -22
-24 -28 -61 -11 -71 6 -3 10 -15 10 -26 0 -12 7 -19 20 -19 28 0 26 -19 -14
-135 -36 -106 -54 -179 -38 -157 7 10 46 13 155 13 81 0 233 -1 337 -1 l190 0
0 -43 c0 -43 0 -44 -32 -40 -18 2 -40 3 -48 2 -8 0 -150 -2 -315 -2 l-301 -2
4 27 c7 48 -6 30 -18 -24 -24 -109 -40 -248 -46 -408 -6 -152 -5 -170 15 -227
11 -34 21 -69 21 -78 0 -9 7 -29 15 -45 32 -62 59 -313 39 -364 -4 -10 -18
-16 -36 -16 -43 0 -68 -17 -68 -46 0 -13 22 -77 50 -141 l50 -115 -20 -26
c-26 -32 -25 -44 5 -104 28 -56 31 -83 11 -95 -11 -6 -13 -36 -8 -151 5 -140
5 -143 38 -194 36 -55 37 -62 28 -119 -5 -31 -11 -38 -35 -43 -27 -5 -29 -8
-29 -56 l0 -50 318 1 c322 0 506 13 535 37 9 8 14 24 12 43 -5 40 13 38 143
-15 59 -24 143 -53 187 -66 44 -12 109 -31 145 -41 252 -73 756 -72 1020 2
152 43 287 88 380 128 105 45 146 51 154 23 3 -10 29 -35 57 -56 68 -51 108
-56 477 -56 l302 0 0 50 c0 45 -3 50 -25 56 -14 3 -25 12 -25 20 0 8 -9 14
-20 14 -22 0 -28 28 -10 46 8 8 6 15 -4 23 -18 15 -9 40 32 83 25 27 25 31 24
155 -1 71 -2 131 -2 136 0 15 -38 6 -55 -13 -10 -12 -22 -17 -27 -12 -12 12 5
54 39 93 46 54 73 96 73 114 0 10 -8 38 -17 64 l-16 47 46 100 c26 55 47 115
47 132 0 40 -21 92 -44 111 -52 43 -66 162 -28 236 11 22 23 60 27 85 4 25 13
67 21 94 17 59 19 251 3 416 -11 121 -43 311 -58 345 -5 11 -24 63 -41 115
-17 52 -37 109 -45 125 -22 50 -34 95 -26 95 4 0 14 -11 21 -25 7 -13 21 -27
31 -30 10 -3 22 -18 28 -33 8 -23 10 -17 10 39 1 52 -3 69 -18 83 -10 9 -21
35 -25 57 -3 21 -15 48 -26 59 -12 12 -23 33 -26 49 -6 27 -5 28 47 34 94 11
94 11 94 270 0 251 -3 266 -75 313 -33 22 -40 32 -40 58 0 54 12 63 58 42 49
-22 62 -16 62 31 0 44 -11 38 -12 -6 -1 -17 -3 -31 -5 -31 -2 0 -30 14 -63 30
l-60 30 0 59 c0 43 -5 62 -17 73 -18 16 -77 48 -88 48 -3 0 -5 -53 -5 -117 l0
-118 96 -63 c138 -91 134 -81 134 -349 0 -243 -2 -253 -60 -253 -36 0 -61 10
-55 20 3 5 0 12 -6 16 -8 4 -9 3 -5 -4 12 -19 -7 -14 -49 14 -160 107 -175
134 -175 312 l0 120 60 -35 60 -36 0 -88 0 -88 44 -31 c25 -16 47 -30 50 -30
3 0 6 67 6 150 l0 149 -60 41 c-82 55 -128 97 -146 131 -18 36 -20 358 -3 392
27 51 59 49 170 -10 111 -58 146 -87 165 -138 l15 -40 -5 35 c-4 25 -19 47
-53 78 l-47 44 12 44 c7 24 12 66 12 92 0 43 3 48 33 62 27 13 32 20 32 50 l0
35 -173 3 -174 2 4 -54 3 -54 -46 19 c-26 10 -49 15 -53 12 -3 -3 -47 -9 -98
-14 -67 -5 -95 -4 -100 4 -4 7 -8 -59 -8 -145 0 -86 -3 -165 -6 -175 -5 -12
-4 -15 4 -8 5 6 36 73 68 150 32 77 59 142 60 144 3 3 120 -37 132 -44 1 -1
-34 -77 -79 -170 l-81 -168 71 -247 c75 -262 76 -264 63 -256 -5 3 -9 -1 -9
-8 0 -9 7 -12 16 -8 9 3 13 1 8 -3 -4 -5 1 -17 10 -28 12 -12 2 -9 -27 10 -25
17 -60 38 -77 49 -35 19 -40 32 -83 204 -11 47 -26 100 -32 119 l-11 34 -13
-24 c-9 -16 -13 -61 -14 -132 l0 -107 -69 36 c-65 34 -68 37 -62 65 3 16 4
196 1 399 -3 204 -5 370 -5 370 0 -4 129 -39 132 -36 6 6 -137 51 -210 66 -32
6 -61 10 -63 7 -3 -3 13 -8 35 -12 23 -4 43 -11 46 -16 3 -4 -19 -159 -50
-343 -30 -184 -55 -346 -55 -359 l0 -25 -73 26 -74 26 -11 81 c-13 94 -32 188
-38 182 -2 -2 -15 -52 -28 -111 -14 -59 -26 -110 -29 -112 -2 -3 -34 3 -71 12
-55 14 -66 20 -66 38 0 20 -92 609 -106 674 -5 27 -4 32 11 32 10 0 16 3 12 6
-3 3 -15 3 -27 -1 -17 -5 -20 -12 -16 -31 6 -22 4 -24 -32 -24 -36 0 -40 3
-48 33 -7 24 -15 32 -34 33 -18 1 -19 0 -5 -3 23 -4 16 27 101 -463 24 -140
44 -255 44 -256 0 0 -24 3 -52 7 -29 4 -60 8 -69 8 -12 1 -18 15 -22 57 -3 31
-9 60 -14 64 -4 4 -40 11 -80 14 l-72 7 -12 -60 -12 -61 -69 0 c-63 0 -69 2
-63 18 4 9 26 116 51 237 24 121 53 262 64 314 21 100 25 141 10 106 -5 -11
-9 -32 -9 -47 -1 -31 -17 -36 -47 -13 -22 17 -96 20 -124 5 -17 -9 -20 -5 -26
35 -3 25 -9 46 -13 48 -3 1 -35 -1 -71 -4z m-510 -83 c0 -13 132 -635 139
-657 9 -25 7 -27 -38 -37 -25 -6 -55 -14 -67 -18 -19 -5 -22 0 -28 45 -4 28
-10 52 -14 54 -4 3 -41 -7 -82 -22 l-75 -26 -9 -65 -9 -65 -74 -32 c-61 -26
-74 -29 -68 -15 14 36 135 732 135 775 0 24 6 27 83 45 88 21 107 24 107 18z
m-1081 -70 c9 -10 7 -17 -5 -27 -15 -12 -14 -14 3 -20 14 -6 12 -8 -10 -8 -27
-1 -28 0 -13 21 20 29 20 42 0 34 -8 -3 -12 -2 -9 4 9 14 21 12 34 -4z m74 7
c-7 -2 -19 -2 -25 0 -7 3 -2 5 12 5 14 0 19 -2 13 -5z m76 -7 c14 -16 -1 -56
-20 -56 -6 0 -3 7 6 16 18 18 16 35 -5 42 -9 3 -11 -1 -7 -12 4 -9 2 -16 -3
-16 -11 0 -13 23 -3 33 10 11 19 8 32 -7z m130 0 c9 -10 7 -17 -5 -27 -15 -12
-14 -14 3 -20 14 -6 12 -7 -9 -6 -24 1 -26 3 -13 17 18 20 19 37 3 43 -8 4 -9
6 -2 6 6 1 17 -5 23 -13z m3077 -1 c4 -8 1 -22 -5 -29 -10 -11 -8 -15 6 -19
11 -3 7 -5 -11 -6 l-28 -1 17 26 c14 22 15 28 4 35 -11 7 -11 9 -1 9 7 0 15
-7 18 -15z m89 -34 c-7 -22 -29 -28 -40 -11 -3 6 1 7 9 4 21 -8 32 22 15 44
-12 16 -12 16 5 1 12 -11 16 -24 11 -38z m193 29 c1 -9 -5 -24 -13 -35 -16
-20 -16 -19 -6 2 15 29 14 46 -1 40 -7 -2 -12 -10 -10 -16 1 -7 -2 -10 -7 -6
-15 9 -1 36 18 33 9 -2 17 -10 19 -18z m-3573 -10 c3 -5 1 -10 -4 -10 -6 0
-11 5 -11 10 0 6 2 10 4 10 3 0 8 -4 11 -10z m645 -21 c-6 -11 -10 -43 -9 -72
l3 -51 -94 -36 -95 -35 -3 -108 c-1 -59 -1 -107 1 -107 2 0 42 16 90 35 48 19
89 35 92 35 3 0 5 -26 5 -58 l0 -59 -92 -39 -93 -40 -3 -98 -3 -98 23 7 c13 4
36 14 51 22 16 8 35 12 43 9 8 -3 13 -2 10 2 -3 5 10 16 29 25 l35 17 0 -63 0
-63 -87 -43 c-49 -24 -123 -66 -166 -93 -83 -51 -97 -57 -78 -34 9 10 11 126
9 430 l-3 416 110 40 c138 50 218 78 228 79 4 1 3 -8 -3 -20z m2847 -11 c-3
-8 -6 -5 -6 6 -1 11 2 17 5 13 3 -3 4 -12 1 -19z m-3477 -4 c0 -2 -9 -4 -20
-4 -11 0 -20 4 -20 9 0 5 9 7 20 4 11 -3 20 -7 20 -9z m3277 -40 c-3 -3 -12
-4 -19 -1 -8 3 -5 6 6 6 11 1 17 -2 13 -5z m-3077 -114 c17 -17 20 -33 20
-110 l0 -90 -60 -30 c-33 -16 -61 -30 -63 -30 -2 0 -5 21 -6 47 -1 26 -3 49
-6 51 -2 2 -25 -8 -50 -22 l-45 -27 0 -114 0 -114 82 39 c95 46 111 48 132 18
23 -33 23 -401 0 -456 -22 -53 -67 -97 -169 -163 -93 -61 -131 -71 -159 -43
-24 23 -24 289 0 298 9 3 21 3 26 -1 7 -3 8 -1 4 5 -4 7 7 18 26 28 18 9 36
22 41 28 4 6 6 -37 5 -96 -2 -81 0 -109 10 -113 7 -3 10 0 7 5 -3 6 -2 10 3
10 5 0 26 11 46 25 21 14 40 23 44 21 4 -2 6 67 4 155 -3 146 -4 158 -20 150
-121 -62 -163 -72 -194 -44 -16 14 -18 35 -18 200 0 199 3 215 57 265 29 27
225 128 250 128 7 0 22 -9 33 -20z m1220 -511 c0 -5 -7 -9 -15 -9 -15 0 -20
12 -9 23 8 8 24 -1 24 -14z m520 -13 c-14 -14 -24 0 -16 21 6 15 8 15 16 3 6
-9 5 -19 0 -24z m350 -26 c0 -5 -4 -10 -10 -10 -5 0 -10 5 -10 10 0 6 5 10 10
10 6 0 10 -4 10 -10z m-572 -9 c24 -5 48 -13 54 -19 8 -8 0 -8 -28 0 -22 6
-82 8 -138 6 -85 -4 -95 -3 -75 8 27 15 122 17 187 5z m88 -48 c-9 -9 -335 -9
-329 0 2 4 79 7 170 6 90 0 162 -3 159 -6z m-824 -120 c6 -7 19 -13 29 -13 27
0 24 -18 -3 -22 -16 -2 -27 -14 -35 -38 -9 -30 -12 -32 -18 -15 -13 38 -22 50
-44 53 -28 4 -27 20 1 24 13 2 29 15 37 33 13 26 16 27 19 10 2 -11 9 -26 14
-32z m589 -55 c27 -122 24 -242 -11 -454 -32 -184 -48 -259 -56 -252 -2 3 12
94 31 204 19 109 35 211 35 226 l0 27 -80 0 c-44 0 -80 -4 -80 -10 0 -5 6 -9
13 -9 8 0 7 -4 -3 -10 -13 -9 -13 -10 0 -10 10 0 11 -3 3 -8 -6 -4 -13 -25
-16 -47 -2 -23 -4 -7 -5 38 l-2 77 85 0 84 0 7 36 c6 32 -18 230 -33 272 -4 9
-3 14 1 10 4 -3 16 -44 27 -90z m58 -35 c1 -41 19 -62 22 -25 4 44 17 -105 18
-203 1 -60 8 -171 16 -245 17 -161 18 -190 5 -190 -5 0 -11 12 -11 28 -2 23
-2 24 -6 5 -3 -14 -12 -23 -22 -23 -11 0 -17 8 -17 23 0 25 -12 452 -19 637
-3 88 -1 112 5 80 5 -25 9 -64 9 -87z m-429 96 c0 -5 -4 -9 -10 -9 -5 0 -10 7
-10 16 0 8 5 12 10 9 6 -3 10 -10 10 -16z m396 -40 c4 -40 3 -41 -6 -14 -17
50 -21 80 -9 68 6 -6 12 -30 15 -54z m71 -16 c-2 -16 -4 -3 -4 27 0 30 2 43 4
28 2 -16 2 -40 0 -55z m27 38 c-4 -17 -9 -30 -11 -27 -3 2 -2 19 2 36 9 41 17
33 9 -9z m11 -58 c-21 -99 -26 -116 -31 -110 -3 2 5 48 17 101 12 53 24 94 27
92 2 -3 -3 -40 -13 -83z m86 -91 c1 -99 5 -159 11 -156 5 4 7 16 4 28 -3 11
-1 28 4 36 5 8 10 11 10 6 0 -5 6 -3 14 3 7 6 49 12 94 12 71 1 81 3 85 21 3
11 10 18 15 14 5 -3 9 2 9 11 0 9 -9 18 -19 21 -19 5 -24 27 -9 37 5 3 17 -9
26 -27 14 -29 15 -58 8 -233 -6 -157 -9 -186 -14 -135 -4 36 -7 113 -8 173
l-1 107 -90 0 -90 0 0 -66 c0 -56 -2 -65 -16 -60 -9 3 -22 6 -30 6 -12 0 -14
32 -14 187 0 102 2 184 4 182 3 -3 6 -77 7 -167z m-531 112 c0 -8 -5 -12 -10
-9 -6 4 -8 11 -5 16 9 14 15 11 15 -7z m740 -9 c0 -8 -4 -15 -10 -15 -5 0 -10
7 -10 15 0 8 5 15 10 15 6 0 10 -7 10 -15z m290 -5 c0 -5 -4 -10 -10 -10 -5 0
-10 5 -10 10 0 6 5 10 10 10 6 0 10 -4 10 -10z m-740 -32 c0 -19 -2 -20 -10
-8 -8 12 -10 12 -10 1 0 -8 -3 -12 -6 -8 -9 9 3 37 16 37 5 0 10 -10 10 -22z
m327 -10 c-16 -10 -21 -2 -13 19 6 15 9 15 16 3 6 -9 5 -17 -3 -22z m-487 -11
c-17 -4 -45 -3 -62 2 l-33 9 38 1 c20 1 37 5 37 10 0 5 11 4 25 -2 l24 -12
-29 -8z m799 -17 c21 -22 34 -40 29 -40 -5 0 -23 16 -40 35 -33 38 -46 36 -70
-9 -10 -20 -9 -20 14 2 l24 22 25 -27 c21 -23 22 -25 4 -18 -23 9 -28 9 -77 0
l-37 -7 37 41 c20 22 41 41 45 41 4 0 25 -18 46 -40z m331 26 c0 -16 -18 -31
-27 -22 -8 8 5 36 17 36 5 0 10 -6 10 -14z m-105 -16 c3 -5 -1 -10 -10 -10 -9
0 -13 5 -10 10 3 6 8 10 10 10 2 0 7 -4 10 -10z m-1635 -12 c0 -10 -25 -12
-100 -10 -56 2 -100 -1 -100 -6 0 -11 177 -25 193 -15 6 3 7 1 3 -5 -4 -7 -1
-12 9 -12 9 0 13 -5 9 -11 -3 -6 -10 -7 -15 -2 -4 4 -53 7 -108 5 l-101 -3 0
-215 c0 -164 3 -214 13 -215 10 0 10 -2 0 -6 -7 -2 -13 -13 -13 -24 0 -10 6
-19 13 -20 10 0 10 -2 0 -6 -10 -3 -13 -62 -14 -241 0 -158 -4 -227 -10 -207
-5 17 -9 236 -8 488 l0 457 67 2 67 2 -57 3 c-54 4 -58 6 -58 28 0 25 0 25
105 25 77 0 105 -3 105 -12z m335 -18 c-5 -8 -11 -8 -17 -2 -6 6 -7 16 -3 22
5 8 11 8 17 2 6 -6 7 -16 3 -22z m441 3 c-10 -10 -19 5 -10 18 6 11 8 11 12 0
2 -7 1 -15 -2 -18z m1234 17 c0 -5 -5 -10 -11 -10 -5 0 -7 5 -4 10 3 6 8 10
11 10 2 0 4 -4 4 -10z m-1360 -14 c0 -2 -9 -6 -20 -9 -11 -3 -18 -1 -14 4 5 9
34 13 34 5z m490 -30 c-13 -13 -35 7 -25 24 5 8 11 8 21 -1 10 -8 12 -15 4
-23z m995 14 c0 -7 -6 -15 -12 -17 -8 -3 -13 4 -13 17 0 13 5 20 13 18 6 -3
12 -11 12 -18z m-150 -40 c8 0 15 -4 15 -10 0 -5 -8 -10 -19 -10 -11 0 -21 -9
-25 -22 l-7 -23 -9 23 c-5 12 -18 22 -30 22 -27 0 -26 18 3 22 15 2 23 11 26
28 l3 25 14 -28 c8 -15 21 -27 29 -27z m-1272 33 l-72 -4 -4 -52 -3 -52 -2 58
-2 57 78 -2 77 -2 -72 -3z m-93 -37 c0 -29 -3 -33 -20 -29 -23 6 -27 23 -5 23
8 0 15 9 15 20 0 11 2 20 5 20 3 0 5 -15 5 -34z m570 30 c0 -2 -7 -7 -16 -10
-8 -3 -12 -2 -9 4 6 10 25 14 25 6z m257 -139 c-2 -23 -3 -1 -3 48 0 50 1 68
3 42 2 -26 2 -67 0 -90z m-1040 108 c0 -8 -4 -15 -9 -15 -10 0 -11 14 -1 23 9
10 10 9 10 -8z m893 -20 c0 -19 -2 -35 -4 -35 -2 0 -6 16 -8 35 -2 19 0 35 4
35 4 0 8 -16 8 -35z m117 13 c-3 -8 -6 -5 -6 6 -1 11 2 17 5 13 3 -3 4 -12 1
-19z m-49 5 c-10 -2 -26 -2 -35 0 -10 3 -2 5 17 5 19 0 27 -2 18 -5z m-1341
-25 c-3 -8 -6 -5 -6 6 -1 11 2 17 5 13 3 -3 4 -12 1 -19z m353 13 c0 -5 -7
-12 -16 -15 -14 -5 -15 -4 -4 9 14 17 20 19 20 6z m1209 -18 c2 -1 -4 -10 -13
-19 -22 -21 -41 -5 -31 26 6 18 9 19 23 8 10 -7 19 -13 21 -15z m721 17 c0 -5
-5 -10 -11 -10 -5 0 -7 5 -4 10 3 6 8 10 11 10 2 0 4 -4 4 -10z m-833 -82 c-2
-18 -4 -6 -4 27 0 33 2 48 4 33 2 -15 2 -42 0 -60z m-60 50 c-3 -8 -6 -5 -6 6
-1 11 2 17 5 13 3 -3 4 -12 1 -19z m-1087 -3 c-16 -19 -10 -19 26 0 37 19 53
19 60 0 4 -8 15 -15 26 -15 28 0 47 -53 41 -119 -6 -76 -13 -77 -13 -3 l0 62
-82 2 -83 2 83 3 c81 4 104 15 60 29 -13 4 -25 10 -28 14 -3 4 -15 10 -27 14
-17 5 -29 1 -48 -18 -31 -31 -39 -33 -32 -6 3 11 1 20 -4 20 -5 0 -9 -5 -9
-12 0 -6 -3 -8 -7 -4 -4 4 3 16 17 26 30 24 37 25 20 5z m147 -1 c-3 -3 -12
-4 -19 -1 -8 3 -5 6 6 6 11 1 17 -2 13 -5z m135 -86 c-3 -80 -5 -87 -25 -90
-20 -3 -22 -9 -22 -66 0 -52 -3 -62 -17 -62 -16 0 -18 12 -17 118 1 108 2 115
15 87 9 -20 13 -24 12 -10 -3 31 12 76 22 70 6 -3 10 0 10 7 0 12 22 43 24 35
1 -1 0 -41 -2 -89z m1148 82 c0 -5 -4 -10 -10 -10 -5 0 -10 5 -10 10 0 6 5 10
10 10 6 0 10 -4 10 -10z m-2115 -39 c2 -22 -1 -31 -10 -31 -9 0 -12 6 -9 15 4
10 0 15 -15 15 -28 0 -27 13 2 26 28 13 27 13 32 -25z m1573 -3 l-1 -43 -4 38
-4 38 -62 -3 -62 -3 -6 -35 -6 -35 -2 43 -1 42 75 0 75 0 -2 -42z m-715 19
c-4 -6 0 -8 9 -5 8 4 15 1 15 -7 0 -15 -34 -8 -40 9 -3 7 1 13 9 13 7 0 10 -5
7 -10z m1777 -22 c37 -35 43 -80 19 -128 -10 -21 -19 -39 -19 -41 0 -2 63 -3
141 -2 83 0 144 -3 149 -9 6 -7 -108 -10 -336 -10 -225 0 -343 3 -341 10 2 6
52 10 125 9 114 -1 121 1 107 16 -9 10 -20 32 -25 51 -31 107 99 182 180 104z
m-2432 18 c-10 -2 -26 -2 -35 0 -10 3 -2 5 17 5 19 0 27 -2 18 -5z m411 -24
c-24 -18 -85 -26 -176 -21 l-43 2 -1 -48 c0 -26 -4 -56 -9 -67 -6 -13 -8 12
-8 70 0 50 3 81 5 70 3 -19 10 -20 103 -17 55 2 100 8 100 13 0 5 6 8 13 7 6
-2 11 2 10 9 -2 8 4 10 13 6 14 -5 13 -9 -7 -24z m1038 -21 c-2 -13 -4 -5 -4
17 -1 22 1 32 4 23 2 -10 2 -28 0 -40z m411 11 c2 -13 9 -30 15 -38 9 -12 9
-13 0 -7 -7 4 -13 3 -13 -3 0 -5 8 -12 18 -14 13 -4 11 -5 -5 -6 -21 -1 -23 4
-23 43 0 24 -5 47 -10 49 -6 3 -5 4 2 3 7 -1 15 -13 16 -27z m-2018 11 c0 -5
-4 -10 -10 -10 -5 0 -10 5 -10 10 0 6 5 10 10 10 6 0 10 -4 10 -10z m67 -42
c-2 -13 -4 -5 -4 17 -1 22 1 32 4 23 2 -10 2 -28 0 -40z m1663 48 c0 -3 -4 -8
-10 -11 -5 -3 -10 -1 -10 4 0 6 5 11 10 11 6 0 10 -2 10 -4z m-1120 -15 c0 -5
-10 -11 -21 -14 -14 -4 -20 -11 -16 -20 4 -10 -4 -17 -24 -21 -37 -7 -38 -26
-1 -27 l27 -1 -25 -7 c-24 -6 -25 -8 -25 -99 0 -52 -3 -96 -7 -99 -5 -2 -8 52
-8 120 l0 125 43 26 c45 27 57 31 57 17z m1254 1 c3 -5 -8 -6 -25 -4 -16 2
-29 6 -29 8 0 8 49 4 54 -4z m52 -78 c-5 -94 -15 -123 -18 -53 -1 43 -1 43 -7
9 -4 -31 -6 -27 -11 25 l-5 60 -47 0 c-25 0 -50 4 -55 9 -4 4 24 7 64 4 39 -2
71 -1 71 2 -1 15 3 30 8 30 3 0 3 -39 0 -86z m80 41 c1 -32 1 -34 -3 -7 -3 23
-9 32 -24 32 -15 0 -19 -7 -20 -32 l-2 -33 -6 35 c-9 45 -5 52 27 48 24 -3 27
-8 28 -43z m-1166 25 c0 -5 -2 -10 -4 -10 -3 0 -8 5 -11 10 -3 6 -1 10 4 10 6
0 11 -4 11 -10z m1370 0 c0 -5 -4 -10 -10 -10 -5 0 -10 5 -10 10 0 6 5 10 10
10 6 0 10 -4 10 -10z m530 -20 c0 -5 -4 -10 -10 -10 -5 0 -10 5 -10 10 0 6 5
10 10 10 6 0 10 -4 10 -10z m-2896 -55 c-10 -7 -21 -10 -24 -5 -3 4 -14 10
-25 13 -19 4 -19 5 1 6 12 0 25 8 28 17 5 14 8 14 22 -1 15 -15 15 -17 -2 -30z
m166 35 c0 -5 -4 -10 -10 -10 -5 0 -10 5 -10 10 0 6 5 10 10 10 6 0 10 -4 10
-10z m1527 -12 c-3 -8 -6 -5 -6 6 -1 11 2 17 5 13 3 -3 4 -12 1 -19z m333 9
c0 -9 -10 -12 -30 -9 -31 4 -33 1 -32 -43 1 -11 -4 -6 -10 13 -7 20 -17 32
-29 32 -16 0 -19 -11 -22 -87 l-3 -88 -2 92 -2 92 48 4 c26 2 55 4 65 5 9 1
17 -4 17 -11z m-1367 -12 c-3 -9 -18 -22 -34 -31 l-29 -15 0 -141 c0 -78 -2
-139 -5 -137 -6 7 -13 96 -14 187 l-1 74 -32 -20 c-18 -10 -32 -25 -30 -31 1
-7 -2 -10 -8 -6 -5 3 -28 -6 -50 -22 l-40 -28 -2 -185 -2 -185 -6 185 -5 185
33 30 c36 32 212 154 224 154 4 1 5 -6 1 -14z m832 -7 c6 -12 49 -56 97 -98
l87 -75 0 -58 c1 -49 -1 -56 -13 -45 -8 8 -10 15 -4 17 6 2 4 7 -3 12 -10 6
-11 9 -1 9 7 0 12 12 12 28 -1 22 -19 43 -100 112 -92 79 -125 120 -96 120 6
0 16 -10 21 -22z m-1256 -70 c-1 -46 -4 -73 -6 -60 -4 20 -10 22 -81 22 -146
1 -364 9 -370 14 -3 4 97 6 221 6 l227 0 0 50 c0 28 2 50 5 50 3 0 4 -37 4
-82z m104 75 c-13 -2 -33 -2 -45 0 -13 2 -3 4 22 4 25 0 35 -2 23 -4z m2080
-28 c14 -20 15 -24 2 -19 -10 4 -15 0 -15 -10 0 -9 -4 -16 -10 -16 -5 0 -10 7
-10 15 0 8 -5 15 -10 15 -6 0 -5 8 2 20 16 25 19 25 41 -5z m-2513 -1 c0 -8
-4 -12 -10 -9 -5 3 -10 10 -10 16 0 5 5 9 10 9 6 0 10 -7 10 -16z m310 0 c0
-9 -5 -14 -12 -12 -18 6 -21 28 -4 28 9 0 16 -7 16 -16z m707 10 c-3 -3 -12
-4 -19 -1 -8 3 -5 6 6 6 11 1 17 -2 13 -5z m1080 0 c-3 -3 -12 -4 -19 -1 -8 3
-5 6 6 6 11 1 17 -2 13 -5z m201 -121 l-2 -128 -3 118 -4 117 -39 0 -40 0 0
-57 c0 -72 -6 -66 -13 15 l-5 62 54 0 54 0 -2 -127z m43 22 c5 4 9 21 10 38
l0 32 12 -25 c16 -34 41 -57 55 -52 7 2 19 -4 28 -12 8 -9 26 -16 40 -16 13 0
24 -4 24 -10 0 -6 120 -10 340 -10 313 0 340 -1 349 -17 9 -17 -10 -18 -330
-15 -319 2 -339 1 -339 -15 0 -14 -2 -15 -9 -4 -7 11 -10 10 -14 -5 -2 -10 -5
0 -6 24 l-1 42 -90 0 c-75 0 -90 3 -90 16 0 9 5 12 13 8 10 -6 10 -4 0 7 -8 8
-12 35 -11 69 l2 55 3 -58 c2 -33 8 -55 14 -52z m659 90 c0 -8 -4 -15 -10 -15
-5 0 -10 7 -10 15 0 8 5 15 10 15 6 0 10 -7 10 -15z m-2802 -6 c-2 -6 -8 -10
-13 -10 -5 0 -11 4 -13 10 -2 6 4 11 13 11 9 0 15 -5 13 -11z m215 4 c-7 -2
-19 -2 -25 0 -7 3 -2 5 12 5 14 0 19 -2 13 -5z m2637 -14 c0 -5 -4 -9 -10 -9
-5 0 -10 7 -10 16 0 8 5 12 10 9 6 -3 10 -10 10 -16z m-3282 -32 c2 -10 -3
-17 -12 -17 -18 0 -29 16 -21 31 9 14 29 6 33 -14z m1489 10 c3 -4 -17 -7 -45
-7 l-51 0 -4 -52 -3 -53 -2 60 -2 60 50 -1 c28 0 53 -4 57 -7z m2013 -12 c0
-17 -37 -26 -44 -10 -2 7 0 17 6 23 13 13 38 4 38 -13z m-2770 -9 c8 -2 -9 -4
-37 -5 -29 0 -53 3 -53 7 0 7 52 6 90 -2z m2724 -57 c-8 -13 -24 -1 -24 18 0
13 3 13 15 3 8 -7 12 -16 9 -21z m-1078 14 c-4 -4 -28 -19 -54 -33 -46 -25
-47 -26 -53 -85 -5 -58 -6 -58 -7 -13 -1 25 -5 53 -8 62 -4 11 11 23 53 45 56
29 84 39 69 24z m-749 -65 c-2 -13 -4 -5 -4 17 -1 22 1 32 4 23 2 -10 2 -28 0
-40z m-791 17 c1 -8 -2 -15 -7 -15 -5 0 -9 10 -9 22 0 23 12 17 16 -7z m-277
-77 c0 -66 -3 -86 -9 -70 -5 12 -12 22 -15 22 -4 0 -4 -4 -1 -9 7 -11 -64 -18
-119 -11 -33 4 -26 5 35 10 43 4 -38 7 -189 8 -240 2 -265 0 -278 -15 -13 -16
-13 -16 -7 7 10 39 21 45 87 46 34 0 157 1 272 2 204 2 211 3 212 22 1 13 -2
18 -10 13 -7 -4 -6 1 2 11 8 9 10 16 5 15 -5 -1 -122 -1 -261 0 -219 1 -252 3
-247 16 5 12 47 15 263 18 141 1 257 3 259 5 1 1 2 -40 1 -90z m-620 46 c-15
-18 -28 -18 -36 2 -8 20 17 36 34 22 10 -8 10 -14 2 -24z m2638 24 c3 8 28 12
74 12 l69 0 0 -47 c0 -53 -6 -55 -12 -3 -4 33 -6 35 -47 38 -60 4 -99 -13
-104 -46 -2 -17 -5 -9 -5 18 -1 34 1 41 9 30 8 -11 12 -12 16 -2z m-600 -35
c-3 -10 -5 -4 -5 12 0 17 2 24 5 18 2 -7 2 -21 0 -30z m1573 33 c0 -2 -3 -11
-6 -20 -9 -23 -24 -20 -24 4 0 11 7 20 15 20 8 0 15 -2 15 -4z m-2113 -13
c-20 -2 -52 -2 -70 0 -17 2 0 4 38 4 39 0 53 -2 32 -4z m-605 -50 c-5 -83 -9
-90 -11 -20 0 37 2 67 7 67 4 0 6 -21 4 -47z m1016 40 c-10 -2 -26 -2 -35 0
-10 3 -2 5 17 5 19 0 27 -2 18 -5z m-238 -13 c0 -5 -10 -10 -22 -10 -19 0 -20
2 -8 10 19 13 30 13 30 0z m1060 0 c21 -7 17 -8 -20 -8 -25 0 -54 3 -65 8 -27
11 49 11 85 0z m824 -100 c6 -25 6 -25 -5 -2 -13 24 -68 32 -70 10 0 -10 -2
-10 -6 0 -2 6 -17 12 -31 11 -24 0 -25 -1 -7 -9 13 -6 -10 -9 -70 -10 -194 -3
-356 -1 -365 5 -5 3 -11 -4 -15 -15 -5 -16 -15 -20 -55 -20 -39 0 -48 3 -46
18 1 11 12 19 36 23 29 5 25 6 -22 8 -50 1 -58 4 -58 20 0 19 9 20 332 18 273
-2 332 0 336 12 5 16 37 -31 46 -69z m-731 63 c-7 -2 -19 -2 -25 0 -7 3 -2 5
12 5 14 0 19 -2 13 -5z m-206 -35 c-3 -8 -6 -5 -6 6 -1 11 2 17 5 13 3 -3 4
-12 1 -19z m212 -10 c-1 -24 -3 -27 -6 -10 -2 12 -7 22 -11 23 -4 1 -21 2 -39
3 -54 3 -50 16 5 16 l52 0 -1 -32z m-1132 -40 c-2 -13 -4 -3 -4 22 0 25 2 35
4 23 2 -13 2 -33 0 -45z m163 42 c0 -5 -2 -10 -4 -10 -3 0 -8 5 -11 10 -3 6
-1 10 4 10 6 0 11 -4 11 -10z m200 -10 c0 -5 -7 -7 -15 -4 -8 4 -15 8 -15 10
0 2 7 4 15 4 8 0 15 -4 15 -10z m-1633 -6 c-6 -7 -289 -6 -296 1 -2 3 65 5
149 5 84 0 151 -3 147 -6z m3103 -4 c0 -5 -2 -10 -4 -10 -3 0 -8 5 -11 10 -3
6 -1 10 4 10 6 0 11 -4 11 -10z m-1876 -25 c-4 -8 -8 -15 -10 -15 -2 0 -4 7
-4 15 0 8 4 15 10 15 5 0 7 -7 4 -15z m1215 -22 c0 -28 0 -28 -10 -4 -7 17
-15 22 -29 18 -11 -3 -20 -1 -20 4 0 5 14 9 30 9 26 0 30 -3 29 -27z m-2249
-30 c0 -41 0 -42 -30 -33 -16 5 -158 7 -315 5 -157 -1 -285 1 -285 5 0 4 5 21
11 38 l11 32 304 -3 304 -2 0 -42z m470 -23 c36 -10 323 5 795 40 196 15 381
13 450 -5 33 -9 81 -28 106 -44 30 -19 71 -32 120 -39 177 -26 352 -93 404
-155 46 -54 58 -96 53 -179 -8 -109 -71 -220 -207 -361 -39 -41 -131 -115
-131 -105 0 2 9 27 20 56 25 65 26 124 3 144 -56 49 -224 54 -778 24 -170 -9
-443 -23 -605 -31 -162 -8 -347 -17 -410 -21 -135 -7 -179 5 -204 55 -25 48
-19 89 25 171 104 189 258 480 264 499 6 20 7 20 31 -9 14 -16 43 -34 64 -40z
m1570 66 c0 -3 -4 -8 -10 -11 -5 -3 -10 -1 -10 4 0 6 5 11 10 11 6 0 10 -2 10
-4z m926 -28 c8 -15 14 -32 14 -38 0 -7 -89 -9 -284 -8 -168 2 -282 -1 -279
-6 4 -5 1 -6 -5 -2 -7 4 -12 14 -12 22 0 8 -10 14 -24 14 -20 0 -22 4 -18 26
l5 26 294 -4 295 -3 14 -27z m-626 -3 c0 -19 5 -25 23 -25 19 0 22 -5 23 -40
1 -22 -2 -40 -7 -40 -5 0 -9 16 -9 35 0 28 -4 35 -19 35 -13 0 -21 8 -23 22
-2 14 -13 25 -28 29 -23 6 -22 7 8 8 28 1 32 -2 32 -24z m670 -125 c0 -8 7
-33 15 -55 30 -83 35 -80 -138 -79 -215 1 -214 1 -220 24 -4 17 -14 20 -56 20
-44 0 -51 3 -51 20 0 19 7 20 225 20 124 0 225 4 225 9 0 20 -29 29 -99 30
-50 1 -77 -3 -83 -12 -6 -9 -8 -9 -8 1 0 8 -21 12 -70 12 -38 0 -70 -4 -70
-10 0 -5 -7 -7 -15 -4 -8 3 -28 1 -45 -4 -20 -8 -32 -8 -36 0 -4 6 -9 5 -15
-3 -7 -12 -9 -12 -9 0 0 8 -6 11 -16 7 -8 -3 -12 -2 -9 4 3 6 2 10 -4 10 -5 0
-15 -8 -20 -17 -10 -17 -10 -17 -11 0 0 10 -8 17 -19 17 -10 0 -22 7 -25 16
-3 8 -10 13 -15 10 -16 -10 -41 5 -41 25 0 18 14 19 293 21 l292 3 12 -25 c7
-14 12 -32 13 -40z m-3010 8 c0 -45 -2 -49 -13 -34 -12 16 -36 17 -333 14
l-321 -3 10 38 9 37 324 0 324 0 0 -52z m2478 -153 l-2 -120 -3 98 c-2 53 -8
97 -13 97 -6 0 -10 8 -10 19 0 21 -24 30 -90 33 -42 1 -41 2 15 7 33 3 70 2
82 -4 22 -10 23 -14 21 -130z m-2301 78 c-3 -10 -5 -4 -5 12 0 17 2 24 5 18 2
-7 2 -21 0 -30z m2373 -3 c0 -13 -7 -20 -20 -20 -13 0 -20 7 -20 20 0 13 7 20
20 20 13 0 20 -7 20 -20z m99 -107 c-1 -57 -3 -70 -9 -48 -4 17 -8 49 -9 72
-1 41 -2 42 -38 46 -35 3 -34 4 10 5 l47 2 -1 -77z m48 21 c-3 -3 -12 -4 -19
-1 -8 3 -5 6 6 6 11 1 17 -2 13 -5z m350 -26 c-3 -8 -6 -5 -6 6 -1 11 2 17 5
13 3 -3 4 -12 1 -19z m-242 -8 c3 -6 -1 -7 -9 -4 -18 7 -21 14 -7 14 6 0 13
-4 16 -10z m145 -122 c8 -4 -3 -6 -25 -6 -22 0 -32 2 -22 5 13 3 0 16 -49 49
-37 25 -70 43 -73 42 -4 -2 -48 -27 -99 -57 -51 -29 -95 -51 -98 -48 -3 3 41
32 98 64 l103 60 75 -51 c41 -28 82 -54 90 -58z m-3083 70 c-3 -7 -5 -2 -5 12
0 14 2 19 5 13 2 -7 2 -19 0 -25z m2823 11 c0 -5 -4 -9 -10 -9 -5 0 -10 7 -10
16 0 8 5 12 10 9 6 -3 10 -10 10 -16z m-2713 -26 c-3 -10 -5 -4 -5 12 0 17 2
24 5 18 2 -7 2 -21 0 -30z m-147 -3 c0 -5 -5 -10 -11 -10 -5 0 -7 5 -4 10 3 6
8 10 11 10 2 0 4 -4 4 -10z m87 -22 c-3 -8 -6 -5 -6 6 -1 11 2 17 5 13 3 -3 4
-12 1 -19z m2870 -55 c-2 -16 -4 -3 -4 27 0 30 2 43 4 28 2 -16 2 -40 0 -55z
m-3085 -86 c48 -67 103 -140 123 -161 19 -22 35 -44 35 -48 0 -5 6 -6 13 -2 6
4 9 4 5 -1 -4 -4 -2 -15 5 -24 6 -9 -15 11 -49 44 -33 33 -79 86 -103 117 -24
32 -48 55 -54 51 -5 -3 -7 -1 -3 5 3 6 -12 36 -34 68 -39 56 -47 74 -32 74 4
0 46 -55 94 -123z m-126 75 c-18 -16 -18 -16 -6 6 6 13 14 21 18 18 3 -4 -2
-14 -12 -24z m341 -14 c-3 -7 -5 -2 -5 12 0 14 2 19 5 13 2 -7 2 -19 0 -25z
m60 -10 c-3 -8 -6 -5 -6 6 -1 11 2 17 5 13 3 -3 4 -12 1 -19z m2500 -15 c-3
-10 -5 -4 -5 12 0 17 2 24 5 18 2 -7 2 -21 0 -30z m310 -25 c-3 -7 -5 -2 -5
12 0 14 2 19 5 13 2 -7 2 -19 0 -25z m-2810 -90 c-3 -8 -6 -5 -6 6 -1 11 2 17
5 13 3 -3 4 -12 1 -19z m-228 -50 c26 -39 31 -51 14 -31 -28 32 -68 93 -60 93
2 0 23 -28 46 -62z m3331 55 c0 -5 -24 -19 -53 -32 -28 -14 -64 -30 -79 -37
-16 -7 -28 -10 -28 -6 0 7 137 80 153 81 4 1 7 -2 7 -6z m-439 -72 c31 -27 56
-57 56 -65 0 -9 -2 -14 -4 -12 -3 2 -3 6 -1 9 4 6 -105 96 -113 94 -3 -1 -13
4 -21 10 -12 11 -21 7 -49 -21 -19 -18 -61 -54 -94 -80 l-60 -47 65 61 c64 61
65 61 25 45 -22 -10 -71 -28 -110 -40 -38 -13 -79 -26 -90 -30 -20 -7 -20 -7
0 8 12 8 70 31 131 51 61 20 125 47 144 61 38 28 42 27 121 -44z m139 -2 c102
-13 110 -19 20 -15 -48 2 -86 9 -105 20 -16 9 -21 14 -10 11 11 -4 54 -11 95
-16z m-905 -49 c38 -39 41 -40 115 -42 68 -2 70 -2 20 -6 -41 -3 -50 -6 -35
-12 16 -7 17 -9 3 -9 -9 -1 -20 4 -23 9 -3 6 -13 10 -22 10 -9 0 -36 18 -60
41 -42 38 -46 40 -63 24 -10 -9 -53 -29 -97 -45 -43 -15 -110 -40 -150 -54
-51 -19 -98 -28 -160 -31 -48 -2 -113 -7 -144 -11 -45 -5 -70 -2 -123 16 -37
12 -66 24 -64 26 2 2 33 -6 68 -17 46 -14 77 -18 105 -14 22 4 87 9 144 11 95
4 114 9 217 49 62 25 119 45 126 45 7 0 31 11 53 25 22 13 42 25 45 25 3 0 24
-18 45 -40z m890 12 c-3 -3 -11 0 -18 7 -9 10 -8 11 6 5 10 -3 15 -9 12 -12z
m-3020 -47 l20 -16 -20 10 c-11 5 -29 17 -40 26 l-20 16 20 -10 c11 -5 29 -17
40 -26z m955 10 c0 -9 -6 -12 -15 -9 -8 4 -15 1 -15 -5 0 -6 -7 -11 -15 -11
-8 0 -15 -5 -15 -11 0 -5 -4 -8 -8 -5 -5 3 -42 -8 -83 -24 -41 -16 -81 -29
-89 -29 -8 0 17 12 55 28 39 15 93 39 120 54 59 31 65 32 65 12z m350 -56 l75
-71 -79 63 -78 62 -82 -41 c-44 -23 -101 -44 -126 -46 l-45 -5 52 13 c28 7 84
32 125 54 40 23 75 42 78 42 3 0 39 -32 80 -71z m1850 36 c17 -9 30 -18 30
-21 0 -4 -59 23 -69 32 -10 9 13 3 39 -11z m-2894 -31 c40 -18 80 -27 126 -29
36 -1 71 -6 78 -10 6 -4 41 1 78 10 49 12 74 13 92 6 24 -10 23 -10 -10 -9
-19 1 -60 -5 -91 -12 -44 -10 -64 -10 -90 -1 -18 6 -47 9 -64 5 -31 -5 -154
34 -179 57 -16 15 -2 10 60 -17z m707 -4 c3 -11 1 -18 -4 -14 -5 3 -9 12 -9
20 0 20 7 17 13 -6z m-918 -10 c10 -11 16 -20 13 -20 -3 0 -13 9 -23 20 -10
11 -16 20 -13 20 3 0 13 -9 23 -20z m979 -49 c-47 -28 -94 -52 -94 -47 0 6
103 66 115 66 6 0 -4 -9 -21 -19z m2249 12 c-7 -2 -19 -2 -25 0 -7 3 -2 5 12
5 14 0 19 -2 13 -5z m-3162 -50 c13 -16 12 -17 -3 -4 -10 7 -18 15 -18 17 0 8
8 3 21 -13z m229 -51 c30 -9 31 -10 10 -11 -23 -1 -100 42 -100 55 0 3 13 -4
28 -14 15 -11 43 -25 62 -30z m2937 26 c-3 -8 -6 -5 -6 6 -1 11 2 17 5 13 3
-3 4 -12 1 -19z m-2702 -19 c8 -25 -1 -37 -17 -21 -8 8 -19 7 -42 -5 l-31 -15
35 31 c42 36 47 37 55 10z m-318 -24 c26 4 43 3 40 -2 -3 -5 -28 -10 -54 -12
-44 -2 -49 0 -50 21 -2 21 -1 21 9 5 8 -16 17 -18 55 -12z m2743 -15 c0 -22
-4 -40 -10 -40 -5 0 -10 18 -10 40 0 22 5 40 10 40 6 0 10 -18 10 -40z m-3384
-2 c-18 -26 -22 -17 -5 14 6 11 13 17 16 15 3 -3 -2 -16 -11 -29z m214 11 c0
-5 -4 -9 -10 -9 -5 0 -10 7 -10 16 0 8 5 12 10 9 6 -3 10 -10 10 -16z m780 6
c11 -13 10 -14 -4 -9 -9 3 -16 10 -16 15 0 13 6 11 20 -6z m80 -15 c0 -5 -7
-7 -15 -4 -8 4 -12 10 -9 15 6 11 24 2 24 -11z m2164 10 c-18 -16 -69 -21 -87
-7 -16 11 -11 13 38 14 32 1 54 -2 49 -7z m424 -15 c-6 -14 -13 -23 -15 -21
-5 5 15 46 22 46 3 0 -1 -11 -7 -25z m-618 -5 c0 -5 -4 -10 -10 -10 -5 0 -10
5 -10 10 0 6 5 10 10 10 6 0 10 -4 10 -10z m-2944 -27 c-10 -10 -19 5 -10 18
6 11 8 11 12 0 2 -7 1 -15 -2 -18z m664 -6 c0 -4 -4 -6 -9 -3 -5 4 -11 3 -14
-1 -2 -5 -2 -2 -1 5 5 21 -17 13 -38 -13 -11 -14 -25 -25 -31 -25 -6 0 4 15
22 34 29 29 36 33 52 23 11 -7 19 -15 19 -20z m1450 17 c0 -8 -4 -12 -10 -9
-5 3 -10 10 -10 16 0 5 5 9 10 9 6 0 10 -7 10 -16z m730 6 c0 -5 -2 -10 -4
-10 -3 0 -8 5 -11 10 -3 6 -1 10 4 10 6 0 11 -4 11 -10z m547 -12 c-3 -8 -6
-5 -6 6 -1 11 2 17 5 13 3 -3 4 -12 1 -19z m-2987 2 c0 -5 -4 -10 -10 -10 -5
0 -10 5 -10 10 0 6 5 10 10 10 6 0 10 -4 10 -10z m495 -1 c11 -16 1 -19 -13
-3 -7 8 -8 14 -3 14 5 0 13 -5 16 -11z m557 -24 c-9 -19 -20 -35 -25 -35 -5 0
-7 3 -5 8 23 47 32 62 38 62 4 0 0 -16 -8 -35z m118 25 c0 -5 -4 -10 -10 -10
-5 0 -10 5 -10 10 0 6 5 10 10 10 6 0 10 -4 10 -10z m370 1 c0 -6 -4 -13 -10
-16 -5 -3 -10 1 -10 9 0 9 5 16 10 16 6 0 10 -4 10 -9z m-1670 -11 c0 -5 -2
-10 -4 -10 -3 0 -8 5 -11 10 -3 6 -1 10 4 10 6 0 11 -4 11 -10z m960 0 c0 -5
-2 -10 -4 -10 -3 0 -8 5 -11 10 -3 6 -1 10 4 10 6 0 11 -4 11 -10z m590 6 c0
-3 -4 -8 -10 -11 -5 -3 -10 -1 -10 4 0 6 5 11 10 11 6 0 10 -2 10 -4z m-1866
-30 c-15 -12 -15 -13 0 -19 9 -4 16 -13 16 -22 0 -8 5 -15 10 -15 6 0 10 -6
10 -13 0 -8 -7 -14 -15 -14 -9 0 -14 6 -11 13 3 8 0 17 -7 21 -11 8 -37 47
-37 58 0 2 7 2 15 -1 8 -4 15 -1 15 6 0 6 5 8 11 5 6 -5 4 -11 -7 -19z m1833
18 c-3 -3 -12 -4 -19 -1 -8 3 -5 6 6 6 11 1 17 -2 13 -5z m951 -15 c18 -6 31
-13 29 -15 -2 -2 -17 1 -34 6 -16 6 -59 15 -94 20 l-64 9 65 -4 c36 -2 80 -9
98 -16z m783 11 c10 -6 19 -15 19 -21 0 -6 -7 -3 -16 5 -8 9 -20 14 -25 11 -5
-4 -9 -1 -9 4 0 14 6 14 31 1z m-2811 -81 c0 -39 -4 -69 -10 -69 -6 0 -10 32
-10 76 0 47 4 73 10 69 6 -3 10 -37 10 -76z m77 29 c-2 -13 -4 -5 -4 17 -1 22
1 32 4 23 2 -10 2 -28 0 -40z m2603 25 c0 -19 -13 -9 -16 12 -1 8 2 13 7 9 5
-3 9 -12 9 -21z m-3342 -32 c44 -52 51 -71 28 -71 -20 0 -46 39 -39 58 5 12 1
14 -16 9 -18 -4 -21 -2 -15 15 5 16 3 20 -10 15 -16 -6 -30 6 -19 17 14 14 32
3 71 -43z m246 43 c9 -3 16 -10 16 -15 0 -6 -7 -6 -17 -1 -10 5 -24 7 -30 5
-7 -3 -13 0 -13 6 0 12 20 14 44 5z m1210 -10 c3 -8 2 -12 -4 -9 -6 3 -10 10
-10 16 0 14 7 11 14 -7z m510 -13 c33 -12 79 -33 103 -47 l44 -25 47 23 c26
12 49 23 52 24 3 0 16 5 30 11 53 22 181 36 278 30 150 -9 157 -14 70 -49 -69
-27 -77 -28 -146 -18 -103 14 -200 12 -260 -5 -29 -9 -52 -19 -52 -23 0 -4 24
-24 54 -45 29 -21 75 -62 102 -90 52 -54 36 -47 -30 12 -41 38 -40 29 3 -29
15 -21 -11 -2 -66 49 -167 152 -234 187 -388 201 l-90 9 95 -4 c62 -2 116 -11
154 -24z m1503 14 c5 -4 -2 -5 -14 -2 -22 5 -33 -8 -13 -15 7 -2 6 -10 -3 -21
-12 -17 -13 -15 -14 17 -1 29 2 35 18 33 10 -2 22 -7 26 -12z m-3432 -5 c3 -5
1 -10 -4 -10 -6 0 -11 5 -11 10 0 6 2 10 4 10 3 0 8 -4 11 -10z m35 0 c0 -5
-5 -10 -11 -10 -5 0 -7 5 -4 10 3 6 8 10 11 10 2 0 4 -4 4 -10z m900 0 c0 -5
-5 -10 -11 -10 -5 0 -7 5 -4 10 3 6 8 10 11 10 2 0 4 -4 4 -10z m280 6 c0 -3
-4 -8 -10 -11 -5 -3 -10 -1 -10 4 0 6 5 11 10 11 6 0 10 -2 10 -4z m400 -20
c-105 -36 -181 -82 -290 -172 -56 -46 -104 -84 -108 -84 -17 0 99 103 164 146
51 34 70 51 61 57 -8 6 -6 7 7 3 10 -4 25 -1 32 5 20 16 156 68 179 68 11 1
-9 -10 -45 -23z m1371 -2 c60 -18 144 -58 154 -73 3 -6 -23 3 -58 20 -168 78
-346 74 -518 -11 -34 -17 -62 -25 -69 -20 -10 6 -3 13 21 23 19 8 55 25 82 37
65 29 115 38 233 39 66 1 119 -4 155 -15z m-1291 -27 c0 -23 -5 -34 -14 -34
-12 0 -13 5 -4 21 6 12 11 22 10 24 -4 5 -2 22 3 22 3 0 5 -15 5 -33z m37 -29
c-2 -13 -4 -3 -4 22 0 25 2 35 4 23 2 -13 2 -33 0 -45z m53 22 c0 -22 -2 -40
-4 -40 -2 0 -6 18 -8 40 -2 22 0 40 4 40 5 0 8 -18 8 -40z m56 24 c-3 -9 -6
-27 -6 -41 0 -37 -9 -24 -14 20 -4 29 -2 37 11 37 10 0 13 -6 9 -16z m31 -16
c-3 -8 -6 -5 -6 6 -1 11 2 17 5 13 3 -3 4 -12 1 -19z m-1317 2 c0 -5 -5 -10
-11 -10 -5 0 -7 5 -4 10 3 6 8 10 11 10 2 0 4 -4 4 -10z m1337 -42 c-2 -13 -4
-5 -4 17 -1 22 1 32 4 23 2 -10 2 -28 0 -40z m240 42 c-16 -5 -36 -15 -45 -22
-13 -11 -14 -11 -7 1 6 11 4 13 -8 8 -10 -3 -17 -2 -17 2 0 14 20 19 65 19 37
0 38 0 12 -8z m-2037 -9 c0 -4 -11 -6 -25 -3 -14 2 -25 6 -25 8 0 2 11 4 25 4
14 0 25 -4 25 -9z m890 -6 c0 -8 -7 -15 -15 -15 -16 0 -20 12 -8 23 11 12 23
8 23 -8z m78 -2 c2 -8 -5 -13 -17 -13 -12 0 -21 6 -21 16 0 18 31 15 38 -3z
m42 2 c0 -8 -7 -15 -15 -15 -26 0 -18 20 13 29 1 1 2 -6 2 -14z m840 -17 c0
-17 -3 -28 -7 -24 -10 10 -11 56 -1 56 4 0 8 -14 8 -32z m873 25 c-7 -2 -19
-2 -25 0 -7 3 -2 5 12 5 14 0 19 -2 13 -5z m-2543 -13 c12 -8 11 -10 -7 -10
-13 0 -23 5 -23 10 0 13 11 13 30 0z m890 0 c0 -5 -7 -10 -15 -10 -8 0 -15 5
-15 10 0 6 7 10 15 10 8 0 15 -4 15 -10z m472 -22 c-8 -8 -9 -4 -5 13 4 13 8
18 11 10 2 -7 -1 -18 -6 -23z m1763 22 c19 -8 19 -9 -2 -9 -13 -1 -23 -7 -23
-14 0 -8 10 -19 23 -25 20 -10 19 -11 -8 -5 -27 6 -29 5 -16 -11 12 -15 12
-16 -5 -9 -17 6 -18 5 -4 -12 13 -16 13 -18 0 -13 -8 3 -14 14 -12 24 2 10 6
34 9 52 6 34 7 35 38 22z m-2965 -10 c0 -5 -4 -10 -10 -10 -5 0 -10 5 -10 10
0 6 5 10 10 10 6 0 10 -4 10 -10z m415 0 c14 -6 3 -9 -40 -9 -42 -1 -56 2 -45
9 18 12 58 12 85 0z m561 -8 c-10 -2 -22 0 -28 6 -6 6 0 7 19 4 21 -5 23 -7 9
-10z m574 8 c0 -5 -2 -10 -4 -10 -3 0 -8 5 -11 10 -3 6 -1 10 4 10 6 0 11 -4
11 -10z m-2069 -18 c-7 -13 -6 -23 2 -31 9 -9 9 -14 -3 -21 -8 -5 -17 -7 -19
-4 -3 3 1 9 9 14 15 9 14 11 -30 23 -10 2 -5 9 15 19 17 9 31 16 33 17 1 1 -2
-7 -7 -17z m1002 11 c-7 -2 -21 -2 -30 0 -10 3 -4 5 12 5 17 0 24 -2 18 -5z
m624 -8 c0 -8 -4 -12 -9 -9 -5 3 -6 10 -3 15 9 13 12 11 12 -6z m43 5 c0 -5
-5 -10 -11 -10 -5 0 -7 5 -4 10 3 6 8 10 11 10 2 0 4 -4 4 -10z m634 -6 c3 -8
2 -12 -4 -9 -6 3 -10 10 -10 16 0 14 7 11 14 -7z m1014 -2 c2 -7 -6 -12 -17
-12 -21 0 -27 11 -14 24 9 9 26 2 31 -12z m-2968 -2 c0 -5 -5 -10 -11 -10 -5
0 -7 5 -4 10 3 6 8 10 11 10 2 0 4 -4 4 -10z m684 -4 c-3 -8 -14 -11 -32 -8
l-27 6 25 7 c37 11 40 10 34 -5z m41 4 c3 -5 1 -10 -4 -10 -6 0 -11 5 -11 10
0 6 2 10 4 10 3 0 8 -4 11 -10z m1465 0 c19 -6 12 -8 -31 -9 -34 -1 -86 -12
-137 -31 -83 -30 -114 -32 -44 -3 121 51 161 59 212 43z m625 0 c3 -5 1 -10
-4 -10 -6 0 -11 5 -11 10 0 6 2 10 4 10 3 0 8 -4 11 -10z m-2857 -7 c-10 -2
-26 -2 -35 0 -10 3 -2 5 17 5 19 0 27 -2 18 -5z m252 -9 c0 -9 -5 -14 -12 -12
-18 6 -21 28 -4 28 9 0 16 -7 16 -16z m387 10 c-3 -3 -12 -4 -19 -1 -8 3 -5 6
6 6 11 1 17 -2 13 -5z m472 -10 c17 -4 31 -11 31 -15 0 -5 -10 -7 -22 -4 -124
27 -278 -6 -394 -84 -58 -40 -68 -40 -18 0 109 87 273 129 403 103z m591 -18
c121 -25 196 -54 227 -88 18 -20 17 -20 -27 1 l-45 22 28 -26 c34 -31 30 -31
-23 -4 -31 17 -38 24 -28 31 9 7 8 8 -6 4 -10 -3 -55 6 -100 21 -74 25 -94 27
-241 27 -162 0 -251 -13 -330 -51 -28 -13 -29 -13 -10 2 11 9 36 25 55 35 30
15 59 23 165 44 65 13 229 4 335 -18z m800 14 c0 -5 -5 -10 -11 -10 -5 0 -7 5
-4 10 3 6 8 10 11 10 2 0 4 -4 4 -10z m580 0 c0 -5 -2 -10 -4 -10 -3 0 -8 5
-11 10 -3 6 -1 10 4 10 6 0 11 -4 11 -10z m-3140 -55 c36 -13 55 -24 43 -24
-12 -1 -34 4 -50 10 -15 6 -50 17 -78 24 -47 13 -48 14 -15 14 19 0 64 -10
100 -24z m126 -53 c14 -19 32 -37 42 -38 9 -1 35 -9 57 -18 22 -8 55 -15 73
-16 17 0 32 -4 32 -10 0 -21 -120 1 -141 26 -17 21 -31 17 -19 -5 23 -44 7
-32 -25 18 -42 66 -41 65 -40 36 1 -13 10 -36 19 -52 l18 -28 -22 22 c-18 17
-23 34 -26 85 -1 34 0 53 3 40 2 -13 16 -40 29 -60z m420 63 c42 -8 79 -17 82
-20 13 -13 -7 -12 -58 1 -54 15 -91 15 -340 0 l-75 -5 70 9 c39 5 93 13 120
18 75 14 115 14 201 -3z m534 -1 c0 -8 -5 -12 -10 -9 -6 4 -8 11 -5 16 9 14
15 11 15 -7z m2117 -32 c-11 -5 -37 18 -37 34 0 9 8 5 23 -9 12 -12 18 -24 14
-25z m-3430 20 c-9 -10 -28 -19 -43 -20 -32 -2 -30 1 11 22 40 21 52 20 32 -2z
m910 -4 c-3 -8 -6 -5 -6 6 -1 11 2 17 5 13 3 -3 4 -12 1 -19z m863 12 c-30 -5
-80 -8 -110 -8 l-55 1 45 7 c25 4 74 7 110 7 l65 0 -55 -7z m820 -10 c19 -5
74 -10 122 -10 48 0 90 -4 93 -10 4 -6 -19 -10 -62 -10 l-68 0 25 -21 c18 -14
8 -12 -36 10 -59 29 -148 47 -274 55 -30 2 -5 2 55 0 61 -2 126 -8 145 -14z
m337 -6 c-3 -3 -12 -4 -19 -1 -8 3 -5 6 6 6 11 1 17 -2 13 -5z m308 -14 c-3
-5 -12 -10 -18 -10 -7 0 -6 4 3 10 19 12 23 12 15 0z m-3020 -11 c11 -17 -1
-21 -15 -4 -8 9 -8 15 -2 15 6 0 14 -5 17 -11z m905 1 c0 -5 -5 -10 -11 -10
-5 0 -7 5 -4 10 3 6 8 10 11 10 2 0 4 -4 4 -10z m169 -30 l-42 -40 -151 2
-151 2 150 3 c126 3 152 6 162 20 11 14 62 53 71 53 2 0 -16 -18 -39 -40z
m1220 36 c-12 -10 -59 -15 -59 -6 0 5 14 10 32 10 17 0 29 -2 27 -4z m491 -5
c0 -12 -39 -21 -45 -11 -3 5 5 11 17 13 13 2 24 5 26 6 1 0 2 -3 2 -8z m80 -1
c0 -5 -7 -7 -15 -4 -8 4 -15 8 -15 10 0 2 7 4 15 4 8 0 15 -4 15 -10z m105 0
c-28 -12 -37 -12 -30 0 3 6 16 10 28 9 21 0 21 -1 2 -9z m216 -5 c33 -14 33
-14 8 -15 -15 0 -32 7 -39 15 -16 19 -11 19 31 0z m-3381 -5 c-8 -5 -24 -10
-35 -10 -17 0 -17 2 -5 10 8 5 24 10 35 10 17 0 17 -2 5 -10z m2527 4 c-3 -3
-12 -4 -19 -1 -8 3 -5 6 6 6 11 1 17 -2 13 -5z m-2280 -20 c-3 -3 -12 -4 -19
-1 -8 3 -5 6 6 6 11 1 17 -2 13 -5z m893 -4 c0 -5 -4 -10 -10 -10 -5 0 -10 5
-10 10 0 6 5 10 10 10 6 0 10 -4 10 -10z m1230 0 c-20 -13 -33 -13 -25 0 3 6
14 10 23 10 15 0 15 -2 2 -10z m-2372 -12 c-3 -7 -13 -15 -24 -17 -16 -3 -17
-1 -5 13 16 19 34 21 29 4z m157 0 c30 -13 34 -32 5 -23 -12 4 -20 2 -20 -5 0
-6 -5 -8 -11 -4 -8 4 -7 9 2 15 12 8 11 11 -1 19 -21 13 -6 13 25 -2z m1770 3
c3 -5 1 -12 -5 -16 -5 -3 -10 1 -10 9 0 18 6 21 15 7z m982 -21 c-7 -17 -13
-26 -15 -21 -3 10 15 51 22 51 3 0 -1 -14 -7 -30z m408 20 c4 -6 -9 -10 -33
-10 -22 0 -55 -2 -73 -5 l-34 -5 30 14 c35 17 101 21 110 6z m65 -21 c0 -6 -7
-8 -16 -5 -9 3 -18 6 -20 6 -2 0 -4 7 -4 15 0 13 4 14 20 5 11 -6 20 -16 20
-21z m-3305 11 c3 -5 2 -10 -4 -10 -5 0 -13 5 -16 10 -3 6 -2 10 4 10 5 0 13
-4 16 -10z m556 -67 c16 -37 27 -68 26 -70 -2 -2 -14 9 -28 24 -13 14 -18 23
-11 19 6 -4 12 -2 12 3 0 6 -8 11 -17 11 -14 0 -15 2 -5 9 11 7 11 10 0 22
-12 13 -21 66 -10 54 3 -3 18 -35 33 -72z m899 67 c0 -5 -2 -10 -4 -10 -3 0
-8 5 -11 10 -3 6 -1 10 4 10 6 0 11 -4 11 -10z m370 -6 c0 -2 -9 -4 -20 -4
-11 0 -20 4 -20 9 0 5 9 7 20 4 11 -3 20 -7 20 -9z m90 12 c0 -3 -4 -8 -10
-11 -5 -3 -10 -1 -10 4 0 6 5 11 10 11 6 0 10 -2 10 -4z m83 -3 c-7 -2 -19 -2
-25 0 -7 3 -2 5 12 5 14 0 19 -2 13 -5z m497 -13 c89 -6 85 -7 -59 -8 -85 -1
-152 0 -150 3 10 10 85 23 99 17 8 -3 58 -9 110 -12z m-1202 -7 c-2 -9 -10
-19 -18 -21 -12 -4 -13 -3 -3 10 7 8 10 18 6 21 -3 4 -1 7 6 7 7 0 11 -8 9
-17z m1329 1 c-3 -3 -12 -4 -19 -1 -8 3 -5 6 6 6 11 1 17 -2 13 -5z m40 0 c-3
-3 -12 -4 -19 -1 -8 3 -5 6 6 6 11 1 17 -2 13 -5z m106 -1 c-18 -2 -48 -2 -65
0 -18 2 -4 4 32 4 36 0 50 -2 33 -4z m265 0 c-32 -2 -84 -2 -115 0 -32 2 -6 3
57 3 63 0 89 -1 58 -3z m-1120 -18 c3 -3 -127 -4 -289 -4 -162 1 -280 5 -264
8 33 8 546 4 553 -4z m-1171 -1 c-3 -3 -12 -4 -19 -1 -8 3 -5 6 6 6 11 1 17
-2 13 -5z m2533 -9 c25 -14 25 -14 3 -15 -13 0 -23 5 -23 11 0 8 -5 8 -15 -1
-14 -12 -22 0 -8 13 9 9 14 8 43 -8z m-3345 -5 c13 -6 15 -9 5 -9 -8 0 -22 4
-30 9 -18 12 -2 12 25 0z m750 -1 c5 -7 -11 -9 -49 -6 -75 5 -84 17 -13 17 31
0 59 -5 62 -11z m342 5 c-3 -3 -12 -4 -19 -1 -8 3 -5 6 6 6 11 1 17 -2 13 -5z
m113 -10 c0 -2 -7 -4 -15 -4 -8 0 -15 4 -15 10 0 5 7 7 15 4 8 -4 15 -8 15
-10z m1658 -4 c-7 -11 -16 -20 -21 -20 -4 0 -3 9 3 20 6 11 15 20 20 20 6 0 5
-9 -2 -20z m-1211 4 c-3 -3 -12 -4 -19 -1 -8 3 -5 6 6 6 11 1 17 -2 13 -5z
m1140 0 c-3 -3 -12 -4 -19 -1 -8 3 -5 6 6 6 11 1 17 -2 13 -5z m40 0 c-3 -3
-12 -4 -19 -1 -8 3 -5 6 6 6 11 1 17 -2 13 -5z m183 -6 c0 -11 -57 -10 -65 2
-3 5 9 9 30 8 19 -1 35 -5 35 -10z m-1613 -4 c-3 -3 -12 -4 -19 -1 -8 3 -5 6
6 6 11 1 17 -2 13 -5z m426 -5 c-8 -8 -114 -13 -188 -8 -33 2 -30 3 20 8 93 9
177 9 168 0z m135 -3 c-9 -9 -22 -11 -43 -5 -16 4 -41 10 -55 12 -14 2 6 5 43
6 57 1 66 -1 55 -13z m-1592 -5 c-3 -4 3 -16 14 -26 20 -19 26 -35 12 -35 -11
0 -43 56 -35 64 9 9 15 7 9 -3z m444 -1 c0 -5 -7 -7 -15 -4 -8 4 -15 8 -15 10
0 2 7 4 15 4 8 0 15 -4 15 -10z m1879 6 c-2 -2 -41 -7 -86 -10 -57 -5 -83 -4
-83 3 0 7 32 11 87 11 47 0 84 -2 82 -4z m169 -33 c-12 -20 -24 -31 -26 -25
-4 12 28 61 40 62 4 0 -2 -16 -14 -37z m-2752 11 c18 -14 18 -14 -6 -3 -31 14
-36 19 -24 19 6 0 19 -7 30 -16z m675 -1 c13 -16 12 -17 -3 -4 -17 13 -22 21
-14 21 2 0 10 -8 17 -17z m146 11 c-3 -3 -12 -4 -19 -1 -8 3 -5 6 6 6 11 1 17
-2 13 -5z m341 -22 c48 -21 34 -24 -27 -5 -49 16 -55 16 -100 0 -33 -11 -76
-17 -132 -16 -93 1 -68 16 31 18 30 1 75 8 100 15 48 15 75 13 128 -12z m210
21 c-15 -2 -42 -2 -60 0 -18 2 -6 4 27 4 33 0 48 -2 33 -4z m75 0 c-7 -2 -21
-2 -30 0 -10 3 -4 5 12 5 17 0 24 -2 18 -5z m324 -5 c0 -9 -18 -13 -53 -14
-64 0 -63 5 3 16 26 4 48 8 49 9 0 0 1 -5 1 -11z m381 5 c-54 -2 -142 -2 -195
0 -54 1 -10 3 97 3 107 0 151 -2 98 -3z m1002 -28 c-13 -14 -25 -23 -28 -21
-5 6 41 55 47 50 3 -2 -6 -15 -19 -29z m-3215 15 c3 -5 2 -10 -4 -10 -5 0 -13
5 -16 10 -3 6 -2 10 4 10 5 0 13 -4 16 -10z m1538 -7 c-7 -2 -21 -2 -30 0 -10
3 -4 5 12 5 17 0 24 -2 18 -5z m145 0 c-21 -2 -57 -2 -80 0 -24 2 -7 4 37 4
44 0 63 -2 43 -4z m350 0 c-32 -2 -86 -2 -120 0 -35 2 -9 3 57 3 66 0 94 -1
63 -3z m160 0 c-10 -2 -26 -2 -35 0 -10 3 -2 5 17 5 19 0 27 -2 18 -5z m-2083
-13 c3 -5 2 -10 -4 -10 -5 0 -13 5 -16 10 -3 6 -2 10 4 10 5 0 13 -4 16 -10z
m247 -43 c7 -2 9 -8 5 -13 -4 -4 -24 9 -45 31 -34 35 -34 36 -5 13 18 -15 38
-28 45 -31z m2621 46 c-7 -2 -19 -2 -25 0 -7 3 -2 5 12 5 14 0 19 -2 13 -5z
m50 0 c-7 -2 -19 -2 -25 0 -7 3 -2 5 12 5 14 0 19 -2 13 -5z m132 -3 c-4 -6
-11 -8 -16 -5 -5 4 -9 1 -9 -6 0 -7 -3 -9 -7 -6 -3 4 -14 1 -23 -5 -9 -7 -5
-3 8 10 23 22 59 31 47 12z m-2542 -63 c-6 -9 -63 41 -63 55 0 5 15 -3 34 -19
19 -15 32 -31 29 -36z m1031 21 c20 -21 20 -21 1 -6 -31 24 -68 29 -98 13 -31
-16 -34 -13 -10 10 22 23 80 13 107 -17z m218 0 c-24 -11 -46 -17 -49 -14 -7
7 56 35 77 35 8 0 -5 -10 -28 -21z m312 4 c16 -7 27 -15 24 -18 -3 -2 -18 1
-34 7 -16 7 -72 16 -124 20 l-95 7 100 -2 c55 -1 113 -8 129 -14z m393 -2 c-3
-10 0 -21 7 -24 6 -3 2 -4 -9 -3 -11 1 -19 -3 -18 -10 2 -7 -8 -28 -21 -48
-14 -20 -27 -41 -29 -48 -2 -7 -8 -8 -13 -4 -4 4 -3 16 4 25 7 9 16 27 22 40
5 12 14 22 20 22 6 0 9 4 6 9 -7 10 16 61 28 61 4 0 6 -9 3 -20z m140 14 c-3
-3 -12 -4 -19 -1 -8 3 -5 6 6 6 11 1 17 -2 13 -5z m94 -14 c-13 -11 -28 -20
-35 -20 -6 0 0 9 14 20 33 26 52 25 21 0z m222 13 c-7 -2 -19 -2 -25 0 -7 3
-2 5 12 5 14 0 19 -2 13 -5z m-2729 -18 c3 -8 1 -15 -4 -15 -6 0 -10 7 -10 15
0 8 2 15 4 15 2 0 6 -7 10 -15z m2201 -5 c3 -5 1 -10 -4 -10 -6 0 -11 5 -11
10 0 6 2 10 4 10 3 0 8 -4 11 -10z m-2121 -45 c5 -13 -1 -12 -24 5 -41 29 -48
45 -12 26 16 -8 32 -22 36 -31z m226 12 c0 -4 5 -5 12 -1 7 4 8 3 4 -4 -4 -7
-1 -12 8 -12 9 0 13 -6 10 -14 -3 -7 2 -21 11 -30 10 -9 15 -25 12 -36 -3 -14
2 -24 15 -31 11 -6 17 -13 14 -16 -3 -4 -1 -12 5 -20 16 -18 -4 -17 -41 2 -32
17 -42 41 -12 31 11 -4 9 0 -5 10 -28 20 -30 39 -3 24 14 -7 20 -7 20 0 0 5
-7 10 -16 10 -8 0 -12 4 -9 10 3 5 0 7 -8 4 -8 -3 -14 1 -14 10 0 8 5 13 10 9
5 -3 4 4 -2 16 -7 11 -14 21 -17 21 -3 0 -2 -4 1 -10 3 -5 1 -10 -5 -10 -6 0
-10 6 -8 13 1 6 -4 22 -10 35 -13 22 -12 22 7 10 12 -7 21 -16 21 -21z m-590
9 c0 -2 -7 -7 -16 -10 -8 -3 -12 -2 -9 4 6 10 25 14 25 6z m2783 -10 c3 -7 -1
-24 -10 -35 -23 -33 -9 -36 21 -4 14 15 26 24 26 19 0 -5 -17 -25 -37 -45 -37
-35 -38 -35 -41 -13 -2 13 4 32 12 41 9 10 14 25 10 35 -3 9 -2 16 4 16 5 0
12 -6 15 -14z m57 4 c0 -5 -2 -10 -4 -10 -3 0 -8 5 -11 10 -3 6 -1 10 4 10 6
0 11 -4 11 -10z m-1637 -7 c-34 -2 -93 -2 -130 0 -37 2 -9 3 62 3 72 0 102 -1
68 -3z m115 0 c-10 -2 -26 -2 -35 0 -10 3 -2 5 17 5 19 0 27 -2 18 -5z m522
-3 c0 -5 -24 -10 -53 -10 -29 0 -58 -5 -65 -12 -9 -9 -12 -9 -12 0 0 6 10 14
23 16 12 3 31 7 42 9 38 8 65 7 65 -3z m-1696 -9 c4 -5 -3 -7 -14 -4 -23 6
-26 13 -6 13 8 0 17 -4 20 -9z m216 -26 c26 -27 31 -38 22 -47 -9 -9 -15 -9
-24 1 -10 11 -10 13 0 7 6 -4 12 -3 12 3 0 5 -9 13 -21 16 -11 4 -18 9 -15 13
3 3 -1 14 -11 24 -30 33 3 18 37 -17z m843 18 c-7 -2 -19 -2 -25 0 -7 3 -2 5
12 5 14 0 19 -2 13 -5z m1517 -2 c0 -5 -10 -11 -22 -14 -22 -6 -22 -6 -4 8 23
17 26 18 26 6z m320 -1 c-8 -5 -19 -10 -25 -10 -5 0 -3 5 5 10 8 5 20 10 25
10 6 0 3 -5 -5 -10z m165 -8 c-3 -3 -11 0 -18 7 -9 10 -8 11 6 5 10 -3 15 -9
12 -12z m-1939 -2 c19 -8 42 -7 79 1 38 8 65 8 107 0 58 -12 225 -87 215 -97
-2 -3 -22 4 -43 15 -21 12 -49 21 -61 21 -13 0 -23 6 -23 13 0 9 -3 8 -9 -2
-6 -9 -18 -11 -34 -7 -14 3 -29 1 -32 -4 -4 -6 -11 -7 -17 -4 -15 10 12 24 46
24 16 0 26 3 23 7 -11 10 -137 31 -131 22 3 -5 -9 -6 -26 -3 -44 9 -37 -8 15
-36 64 -35 47 -37 -27 -3 -35 16 -79 37 -98 46 -39 18 -27 23 16 7z m-1096
-20 c0 -5 -7 -7 -15 -4 -8 4 -15 8 -15 10 0 2 7 4 15 4 8 0 15 -4 15 -10z
m2863 3 c-7 -2 -19 -2 -25 0 -7 3 -2 5 12 5 14 0 19 -2 13 -5z m-1950 -30 c19
-16 43 -34 53 -41 21 -14 -38 16 -72 38 -18 11 -28 11 -63 -3 -45 -19 -111
-23 -95 -7 8 8 105 38 130 39 6 1 27 -11 47 -26z m1447 12 c-7 -8 -17 -15 -22
-15 -6 0 -5 7 2 15 7 8 17 15 22 15 6 0 5 -7 -2 -15z m435 5 c13 11 14 10 9
-4 -8 -21 -28 -20 -45 2 -13 15 -12 16 4 3 14 -11 20 -11 32 -1z m-838 -47
c-3 -10 -5 -2 -5 17 0 19 2 27 5 18 2 -10 2 -26 0 -35z m163 37 c0 -6 -30 -10
-70 -10 -40 0 -70 4 -70 10 0 6 30 10 70 10 40 0 70 -4 70 -10z m170 0 c0 -5
-20 -10 -45 -10 -25 0 -45 5 -45 10 0 6 20 10 45 10 25 0 45 -4 45 -10z m30
-51 c-32 -27 -33 -30 -10 -24 24 6 24 5 -7 -25 -40 -38 -42 -46 -5 -23 l27 17
-19 -22 c-11 -12 -30 -22 -43 -22 -27 0 -30 12 -8 30 9 7 14 19 11 25 -6 16
51 75 73 75 11 0 5 -10 -19 -31z m685 21 c-3 -5 -12 -10 -18 -10 -7 0 -6 4 3
10 19 12 23 12 15 0z m-2775 -32 c0 -13 -13 -9 -40 12 l-25 20 33 -12 c17 -7
32 -16 32 -20z m2610 22 c0 -5 -5 -10 -11 -10 -5 0 -7 5 -4 10 3 6 8 10 11 10
2 0 4 -4 4 -10z m-250 -15 c-7 -8 -22 -15 -34 -15 -20 0 -19 1 4 14 34 19 45
19 30 1z m215 5 c-3 -5 -10 -10 -16 -10 -5 0 -9 5 -9 10 0 6 7 10 16 10 8 0
12 -4 9 -10z m-2790 -18 c-3 -3 -11 0 -18 7 -9 10 -8 11 6 5 10 -3 15 -9 12
-12z m1975 -22 l105 -7 -115 -3 c-63 -1 -155 -5 -205 -9 l-90 -6 154 -8 c85
-4 201 -7 259 -7 58 0 102 -3 99 -6 -3 -4 -86 -11 -184 -16 -98 -5 -194 -13
-213 -17 l-35 -9 47 -1 c74 -2 64 -17 -20 -30 -42 -6 -90 -15 -107 -20 -25 -8
-18 -9 40 -10 39 -1 121 -4 184 -8 93 -5 111 -8 97 -18 -9 -7 -40 -15 -69 -19
-28 -4 -67 -11 -84 -17 -18 -6 -81 -16 -140 -23 l-108 -14 192 -1 c191 -1 264
-14 135 -24 -37 -3 -76 -6 -87 -6 -11 0 -42 -7 -70 -15 l-50 -14 43 -1 c46 -1
50 -6 25 -33 -13 -15 -32 -18 -105 -18 -52 0 -88 -4 -88 -10 0 -6 37 -10 90
-10 60 0 90 -4 90 -11 0 -8 5 -8 15 1 10 9 15 9 15 1 0 -6 -3 -11 -7 -12 -29
-3 -47 -9 -53 -20 -4 -6 -34 -15 -66 -19 l-59 -7 52 -2 c28 0 54 -5 57 -9 3
-5 -6 -27 -19 -50 l-24 -42 27 0 c24 -1 25 -2 9 -11 -10 -6 -25 -8 -34 -5 -8
4 -21 2 -27 -3 -6 -5 -20 -11 -31 -14 -18 -4 -18 -5 3 -6 12 0 22 -6 22 -11 0
-21 -34 -23 -87 -5 -42 15 -51 21 -37 26 19 7 19 7 0 14 -16 7 -16 9 -2 17 19
11 22 30 3 22 -7 -2 -21 2 -32 10 -20 15 -20 15 0 16 15 0 17 2 6 9 -9 6 -10
11 -2 15 16 10 4 26 -20 26 -10 0 -19 5 -19 10 0 6 7 10 16 10 8 0 12 5 9 10
-3 6 -15 10 -27 10 -17 0 -18 3 -8 15 14 17 4 39 -13 28 -8 -5 -8 -2 1 9 10
12 9 18 -3 28 -8 7 -15 18 -15 26 0 26 -20 24 -31 -3 -5 -15 -16 -31 -22 -35
-9 -6 -8 -11 3 -19 11 -8 1 -9 -40 -5 -30 3 -117 8 -193 12 -76 4 -140 10
-142 14 -2 4 42 10 98 14 220 14 238 24 87 46 -47 7 -92 16 -100 21 -8 5 83 9
210 10 141 1 214 4 195 9 -124 35 -224 52 -342 57 -73 3 -132 8 -130 10 2 1
98 8 213 14 115 6 227 14 249 18 37 7 34 8 -40 15 -108 11 -139 24 -60 26 33
2 74 5 90 9 24 5 13 9 -55 19 -109 15 -167 15 -173 0 -3 -8 -6 -5 -6 5 -1 16
-10 18 -93 16 -74 -1 -93 1 -103 14 -7 9 -23 21 -36 26 l-24 10 28 0 c19 1 30
-6 38 -21 l10 -23 212 6 c117 4 227 7 246 8 74 2 14 15 -102 21 l-122 7 100 3
c55 1 147 6 205 10 101 7 159 6 390 -10z m817 5 c0 -8 -4 -12 -9 -9 -4 3 -8 9
-8 15 0 5 4 9 8 9 5 0 9 -7 9 -15z m-2577 -5 c24 -15 7 -19 -20 -5 -15 8 -19
14 -10 14 8 1 22 -3 30 -9z m2340 -9 c0 -11 -31 -24 -39 -16 -3 3 1 10 9 15
19 12 30 12 30 1z m-2059 -16 c10 -4 20 -12 21 -18 0 -7 2 -17 2 -23 1 -6 6
-18 12 -25 13 -17 25 -49 19 -49 -3 0 -24 14 -47 30 -42 31 -44 39 -5 19 22
-12 22 -12 3 10 -14 16 -16 21 -5 21 8 1 -3 10 -23 21 -21 11 -38 21 -38 24 0
4 31 -1 61 -10z m-266 -15 c3 -5 -3 -10 -14 -10 -12 0 -21 5 -21 10 0 6 6 10
14 10 8 0 18 -4 21 -10z m565 -2 c0 -5 -25 -8 -55 -8 -30 0 -55 3 -55 8 0 4
25 7 55 7 30 0 55 -3 55 -7z m220 -23 c0 -19 -4 -35 -10 -35 -5 0 -10 16 -10
35 0 19 5 35 10 35 6 0 10 -16 10 -35z m-60 15 c0 -5 -9 -10 -20 -10 -11 0
-20 5 -20 10 0 6 9 10 20 10 11 0 20 -4 20 -10z m1600 0 c-19 -13 -30 -13 -30
0 0 6 10 10 23 10 18 0 19 -2 7 -10z m215 0 c-3 -5 -11 -10 -16 -10 -6 0 -7 5
-4 10 3 6 11 10 16 10 6 0 7 -4 4 -10z m375 -4 c0 -2 -8 -10 -17 -17 -16 -13
-17 -12 -4 4 13 16 21 21 21 13z m-3560 -61 c0 -5 -9 1 -20 15 -11 14 -20 30
-20 35 0 6 9 -1 20 -15 11 -14 20 -29 20 -35z m2670 14 c-28 -25 -34 -35 -17
-25 15 9 39 21 55 26 26 10 26 9 7 -5 -11 -9 -20 -21 -20 -26 0 -6 -9 -17 -19
-25 -11 -8 -16 -14 -10 -14 5 0 -2 -9 -16 -20 -17 -13 -20 -20 -10 -20 11 -1
8 -7 -9 -21 -27 -22 -54 -11 -33 13 6 7 13 35 16 63 3 27 11 54 16 59 8 8 61
31 80 35 3 0 -15 -18 -40 -40z m1000 20 c-43 -79 -293 -348 -440 -474 -87 -73
-190 -151 -190 -142 0 2 30 28 68 56 150 115 419 384 518 519 47 63 64 79 44
41z m-3010 1 c12 -8 9 -10 -12 -10 -16 0 -28 5 -28 10 0 13 20 13 40 0z m2305
0 c-3 -5 -18 -9 -33 -9 l-27 1 30 8 c17 4 31 8 33 9 2 0 0 -3 -3 -9z m-1777
-7 c-10 -2 -26 -2 -35 0 -10 3 -2 5 17 5 19 0 27 -2 18 -5z m-693 -282 c33
-29 53 -48 44 -42 -13 9 -19 7 -30 -6 -13 -16 -12 -17 3 -5 10 8 18 9 22 3 4
-6 14 -7 23 -4 12 5 14 3 8 -7 -5 -9 -4 -11 3 -6 12 7 74 -33 67 -44 -2 -4 1
-7 8 -7 7 0 29 -11 51 -23 l39 -24 -23 -18 c-12 -10 -19 -18 -14 -18 4 0 15 7
25 16 14 12 22 13 38 4 12 -6 19 -15 16 -19 -3 -5 2 -12 11 -15 9 -3 12 -2 9
4 -4 6 27 -7 68 -27 41 -21 72 -42 69 -48 -3 -5 -2 -7 2 -3 11 9 67 -12 60
-23 -3 -5 1 -7 8 -4 15 6 134 -41 121 -47 -4 -3 -2 -3 6 -1 7 2 58 -11 112
-27 122 -38 275 -68 389 -77 47 -3 87 -9 90 -13 6 -8 223 5 355 21 55 7 112
13 127 13 14 1 24 4 22 7 -5 9 82 20 103 13 15 -5 16 -4 3 6 -12 10 -11 11 8
7 12 -3 28 0 35 7 18 17 125 48 139 40 7 -5 8 -3 3 6 -6 10 -3 12 14 7 13 -3
20 -3 17 1 -4 3 8 12 25 19 26 11 35 11 48 1 14 -11 14 -11 4 3 -10 13 -7 17
24 28 27 10 37 10 43 1 5 -8 9 -7 13 5 4 9 3 13 -3 10 -6 -3 -10 -4 -10 -1 0
13 63 36 83 31 15 -4 18 -3 9 3 -10 7 -5 14 23 31 42 24 49 26 39 9 -4 -7 -4
-10 0 -6 4 3 8 10 8 15 2 16 33 31 49 23 11 -6 16 -5 16 5 0 8 -4 12 -9 9 -4
-3 -8 -4 -8 -1 0 2 30 23 68 47 37 24 81 55 97 69 17 14 24 19 18 11 -18 -20
-16 -35 2 -20 8 6 19 9 25 5 15 -9 40 13 33 31 -3 8 -9 14 -15 14 -5 0 -7 -4
-4 -8 3 -5 -1 -9 -9 -9 -13 0 -13 3 1 18 9 10 22 15 29 13 7 -3 16 0 21 7 5 8
3 10 -7 4 -8 -5 -3 4 10 18 24 26 25 26 50 10 26 -16 26 -16 9 4 -22 24 -24
40 -4 24 11 -9 20 -9 34 -2 11 6 21 8 24 6 3 -3 5 2 5 10 0 8 -4 12 -9 9 -4
-3 -8 0 -8 6 0 6 -5 8 -10 5 -6 -4 -8 -10 -5 -15 3 -5 1 -11 -4 -14 -5 -4 -12
-2 -15 3 -4 5 8 21 26 35 30 23 34 24 56 10 22 -14 22 -14 10 6 -7 11 -17 20
-22 20 -5 0 3 13 19 30 27 28 30 29 47 14 9 -9 15 -20 13 -24 -3 -4 3 -14 13
-21 16 -13 16 -13 2 5 -14 18 -13 19 2 13 10 -3 20 -1 24 5 4 6 3 8 -3 5 -6
-4 -19 3 -29 16 -16 18 -16 19 -1 8 17 -13 24 -4 10 15 -5 5 -1 3 7 -6 22 -21
40 -23 40 -4 0 8 5 12 10 9 6 -3 10 4 10 16 0 12 3 19 7 16 3 -4 18 3 32 15
47 43 -33 -53 -130 -156 -54 -56 -97 -95 -105 -92 -7 3 -16 1 -19 -4 -3 -5
-12 -7 -19 -4 -8 3 -16 1 -20 -4 -6 -11 24 -9 44 2 8 5 -1 -7 -19 -27 -39 -41
-52 -46 -46 -18 3 14 -1 18 -12 14 -11 -4 -11 -8 -3 -13 9 -6 9 -9 1 -14 -6
-4 -9 -11 -6 -16 7 -12 -126 -105 -255 -179 -216 -122 -457 -211 -700 -258
-165 -31 -474 -43 -641 -24 -235 27 -455 89 -679 190 -197 89 -480 267 -465
291 3 5 -1 7 -9 4 -17 -6 -227 197 -285 276 -20 27 -23 34 -8 18 14 -15 27
-24 30 -22 3 3 8 -4 12 -15 3 -12 11 -21 17 -21 5 0 8 6 5 14 -6 16 2 28 14
20 5 -3 5 -14 -1 -24 -7 -13 -7 -21 0 -25 6 -4 9 -3 8 2 -3 8 5 13 23 13 6 0
9 -6 6 -14 -8 -20 13 -38 30 -25 16 14 17 5 2 -23 -9 -16 -8 -19 2 -13 9 6 11
3 6 -8 -3 -9 1 -21 11 -29 13 -11 14 -11 7 2 -15 25 -15 60 1 60 9 0 12 -5 8
-12 -4 -7 -4 -10 1 -6 4 4 14 3 22 -3 23 -19 14 -1 -12 25 -14 14 -27 27 -29
28 -1 2 -10 -3 -18 -9 -8 -7 -18 -10 -21 -6 -10 9 14 34 26 26 6 -3 7 -1 3 5
-4 6 -12 10 -19 8 -7 -1 -9 -1 -4 1 4 3 7 9 7 15 0 7 -5 6 -14 -1 -9 -7 -17
-8 -20 -2 -3 5 -1 11 5 13 6 2 1 16 -12 33 -13 17 28 -22 91 -86 63 -63 142
-139 175 -168z m475 206 c0 -5 -12 -6 -27 -3 l-28 7 29 -20 c34 -23 50 -47 41
-61 -9 -15 -28 -12 -22 4 3 7 -8 26 -23 41 -16 16 -27 32 -25 36 3 4 -12 22
-32 39 l-38 32 63 -33 c34 -19 62 -38 62 -42z m-316 21 c-5 -8 -44 13 -44 23
0 4 11 2 24 -4 13 -7 22 -15 20 -19z m903 26 c-3 -3 -12 -4 -19 -1 -8 3 -5 6
6 6 11 1 17 -2 13 -5z m-384 -11 c-7 -2 -21 -2 -30 0 -10 3 -4 5 12 5 17 0 24
-2 18 -5z m315 0 c-21 -2 -57 -2 -80 0 -24 2 -7 4 37 4 44 0 63 -2 43 -4z
m1468 -8 c-23 -17 -36 -19 -36 -6 0 5 8 12 18 14 32 9 37 6 18 -8z m-2925 -17
c7 -13 15 -25 18 -28 22 -19 63 -71 50 -64 -9 5 -29 25 -45 44 -51 61 -57 70
-46 70 6 0 17 -10 23 -22z m2216 16 c-3 -3 -12 -4 -19 -1 -8 3 -5 6 6 6 11 1
17 -2 13 -5z m-994 -74 c-3 -3 -13 5 -23 18 -10 12 -24 22 -32 23 -10 0 -10 2
0 6 6 2 9 10 6 16 -4 7 7 -4 24 -23 16 -19 28 -37 25 -40z m-587 23 c-6 -6
-46 20 -46 30 0 4 11 0 25 -9 14 -9 24 -19 21 -21z m1795 10 c13 -15 12 -15
-8 -4 -24 12 -29 21 -14 21 5 0 15 -7 22 -17z m495 2 c-22 -16 -57 -21 -40 -6
7 8 29 15 54 20 3 0 -4 -6 -14 -14z m-2296 -35 c13 -9 13 -10 0 -10 -8 0 -22
5 -30 10 -13 9 -13 10 0 10 8 0 22 -5 30 -10z m490 0 c0 -5 -4 -10 -9 -10 -6
0 -13 5 -16 10 -3 6 1 10 9 10 9 0 16 -4 16 -10z m100 -55 c-11 -13 -10 -19 5
-35 10 -11 16 -22 13 -25 -7 -7 -33 32 -43 64 -5 16 -4 21 4 17 6 -4 11 -2 11
3 0 6 -4 11 -9 11 -5 0 -12 8 -15 18 -5 11 2 8 20 -10 23 -23 25 -29 14 -43z
m1706 50 c-22 -17 -46 -20 -46 -6 0 8 21 16 55 19 6 1 1 -5 -9 -13z m-2900
-52 c-8 -9 -46 32 -46 50 0 7 12 -1 27 -15 15 -15 23 -31 19 -35z m922 -23 c7
0 12 -4 12 -10 0 -20 -17 -9 -65 42 -49 52 -49 52 -5 10 25 -23 51 -42 58 -42z
m1537 60 c3 -5 2 -10 -4 -10 -5 0 -13 5 -16 10 -3 6 -2 10 4 10 5 0 13 -4 16
-10z m-1860 -10 c3 -5 -1 -10 -9 -10 -8 0 -18 5 -21 10 -3 6 1 10 9 10 8 0 18
-4 21 -10z m495 -4 c-7 -7 -13 -7 -20 0 -6 6 -3 10 10 10 13 0 16 -4 10 -10z
m1525 -16 c-16 -16 -31 -27 -34 -24 -5 4 48 53 58 54 3 0 -8 -13 -24 -30z
m295 15 c0 -3 -16 -12 -36 -20 -25 -10 -41 -12 -53 -5 -13 7 -10 9 14 10 17 0
37 5 45 10 16 11 30 13 30 5z m-2260 -15 c-8 -5 -22 -10 -30 -10 -13 0 -13 1
0 10 8 5 22 10 30 10 13 0 13 -1 0 -10z m464 1 c3 -5 -2 -15 -12 -22 -15 -12
-16 -12 -5 2 7 9 10 19 6 22 -3 4 -4 7 0 7 3 0 8 -4 11 -9z m141 -1 c3 -6 -1
-7 -9 -4 -18 7 -21 14 -7 14 6 0 13 -4 16 -10z m-1083 -251 c81 -76 142 -139
135 -139 -14 0 -380 362 -386 382 -2 7 20 -13 50 -45 30 -32 120 -121 201
-198z m266 -109 c56 -45 102 -84 102 -87 0 -5 -53 35 -165 126 -96 78 -278
254 -307 296 -12 17 44 -33 123 -111 79 -78 190 -178 247 -224z m2977 160
c-105 -105 -196 -190 -203 -190 -8 0 75 87 185 194 109 107 200 192 203 190 2
-3 -81 -90 -185 -194z m-2670 171 c-3 -6 4 -15 16 -21 15 -8 18 -15 11 -22 -8
-8 -16 -6 -27 5 -8 9 -32 19 -53 23 -30 6 -33 8 -17 15 29 11 77 11 70 0z
m2140 -1 c19 -8 19 -9 -2 -9 -12 -1 -25 4 -28 9 -7 12 2 12 30 0z m615 -15
c-7 -9 -15 -13 -17 -11 -6 6 20 36 26 30 2 -2 -2 -10 -9 -19z m-907 -6 c-13
-13 -28 -19 -38 -15 -22 8 -10 25 14 19 10 -3 22 0 25 6 4 6 10 11 14 11 3 0
-3 -10 -15 -21z m227 10 c11 -8 8 -9 -15 -5 -39 8 -64 -7 -47 -27 10 -12 8
-13 -15 -9 -22 4 -25 2 -20 -12 4 -10 3 -15 -3 -11 -15 10 -51 -5 -44 -17 5
-8 1 -9 -10 -5 -10 4 -22 7 -27 7 -23 0 -6 19 24 25 37 8 59 23 51 36 -3 5 4
9 15 9 12 0 21 5 21 10 0 13 51 13 70 -1z m-1840 -13 c0 -2 -9 -6 -20 -9 -11
-3 -20 -1 -20 4 0 5 9 9 20 9 11 0 20 -2 20 -4z m240 -53 c0 -4 -11 4 -25 17
-14 13 -25 27 -25 31 0 5 11 -3 25 -17 14 -14 25 -28 25 -31z m-193 41 c-4 -4
9 -28 28 -54 19 -26 35 -53 35 -60 0 -7 -12 4 -26 25 -37 54 -52 68 -71 61
-15 -6 -14 -4 2 14 10 11 23 20 28 20 6 0 7 -3 4 -6z m288 -4 c3 -5 1 -10 -4
-10 -6 0 -11 5 -11 10 0 6 2 10 4 10 3 0 8 -4 11 -10z m980 1 c-20 -19 -61
-23 -74 -7 -12 14 -8 16 35 16 30 0 44 -4 39 -9z m74 5 c-14 -13 -69 -35 -69
-28 0 10 38 30 59 31 8 1 12 -1 10 -3z m-1239 -10 c0 -2 -7 -7 -16 -10 -8 -3
-12 -2 -9 4 6 10 25 14 25 6z m1405 -6 c3 -6 -5 -10 -19 -10 -14 0 -28 5 -31
10 -3 6 5 10 19 10 14 0 28 -4 31 -10z m-1702 -11 c27 -7 37 -15 33 -25 -3 -8
0 -14 7 -14 7 0 32 -16 56 -35 24 -19 41 -35 37 -35 -14 0 -111 73 -108 81 1
5 -8 9 -21 9 -13 0 -32 7 -43 15 -23 17 -12 19 39 4z m1327 1 c0 -5 -5 -10
-11 -10 -5 0 -7 5 -4 10 3 6 8 10 11 10 2 0 4 -4 4 -10z m-973 -34 c45 -32 83
-76 66 -76 -11 1 -43 26 -43 34 0 14 -64 61 -78 58 -8 -2 -11 1 -7 7 9 15 9
15 62 -23z m1083 24 c-8 -5 -19 -10 -25 -10 -5 0 -3 5 5 10 8 5 20 10 25 10 6
0 3 -5 -5 -10z m230 -5 c11 -13 10 -14 -4 -9 -12 5 -15 2 -9 -12 4 -12 3 -15
-5 -10 -7 4 -12 2 -12 -5 0 -10 -3 -10 -12 -1 -9 9 -7 16 7 32 22 24 20 24 35
5z m-1150 -15 c0 -5 -7 -7 -15 -4 -8 4 -12 10 -9 15 6 11 24 2 24 -11z m350
-30 c-8 -5 -18 -6 -24 -3 -5 4 -1 10 10 13 24 9 34 2 14 -10z m948 0 c3 -9 -1
-11 -11 -7 -9 3 -23 0 -31 -8 -8 -8 -20 -15 -26 -15 -7 0 -10 -7 -6 -15 3 -8
1 -15 -3 -15 -5 0 -17 -3 -27 -7 -28 -10 -13 12 35 51 44 37 61 41 69 16z
m846 -117 c-59 -56 -112 -99 -116 -97 -5 3 -7 0 -6 -8 2 -7 -8 -14 -21 -16
-15 -2 -21 0 -16 7 3 6 11 8 17 5 6 -4 8 -2 5 3 -6 10 104 116 114 110 2 -1 3
0 1 2 -5 9 41 50 50 45 5 -3 7 0 6 8 -2 7 4 12 12 10 8 -2 12 0 7 4 -4 4 5 21
20 37 25 25 28 26 32 10 2 -12 -29 -49 -105 -120z m-2088 93 c35 -35 45 -66
21 -66 -8 0 -22 10 -33 23 l-19 22 23 -19 c16 -14 22 -16 22 -5 0 21 -17 42
-28 35 -5 -3 -15 1 -22 9 -7 8 -9 15 -4 16 5 0 0 4 -11 9 -18 8 -18 9 -1 9 10
1 33 -14 52 -33z m1047 13 c4 -16 3 -18 -9 -8 -16 13 -19 29 -5 29 5 0 11 -9
14 -21z m622 11 c-3 -5 -12 -10 -18 -10 -7 0 -6 4 3 10 19 12 23 12 15 0z
m-3048 -97 c8 9 74 -53 68 -63 -3 -4 3 -14 12 -21 15 -12 16 -12 10 5 -7 16
-5 17 9 5 11 -9 12 -15 5 -17 -9 -3 -8 -8 1 -20 26 -34 -89 69 -152 135 -48
50 -52 55 -13 19 29 -28 56 -47 60 -43z m2110 81 c-3 -3 -12 -4 -19 -1 -8 3
-5 6 6 6 11 1 17 -2 13 -5z m136 -1 c-7 -2 -19 -2 -25 0 -7 3 -2 5 12 5 14 0
19 -2 13 -5z m-579 -12 c9 -15 -22 -21 -50 -11 -14 6 -30 7 -36 4 -7 -4 -8 -2
-4 4 8 14 82 16 90 3z m736 -25 c0 -5 -7 -3 -15 4 -8 7 -12 17 -9 22 7 10 24
-9 24 -26z m-1143 -54 c9 -20 19 -41 22 -47 3 -7 -1 -7 -10 0 -8 6 -3 0 11
-12 14 -13 21 -23 16 -23 -5 0 -1 -10 10 -21 l19 -22 -25 13 c-14 7 -36 22
-50 33 -20 16 -21 19 -5 14 14 -5 11 0 -10 18 -18 15 -22 23 -11 19 16 -6 17
-4 7 14 -6 12 -19 26 -29 31 -23 14 -6 14 21 0 13 -7 8 2 -13 20 l-35 32 32
-16 c20 -9 40 -30 50 -53z m846 61 c-7 -2 -21 -2 -30 0 -10 3 -4 5 12 5 17 0
24 -2 18 -5z m-2122 -20 c13 -16 12 -17 -3 -4 -10 7 -18 15 -18 17 0 8 8 3 21
-13z m994 -3 c3 -6 -1 -7 -9 -4 -18 7 -21 14 -7 14 6 0 13 -4 16 -10z m1390 0
c3 -5 2 -10 -4 -10 -5 0 -13 5 -16 10 -3 6 -2 10 4 10 5 0 13 -4 16 -10z
m-2394 -82 c15 -27 3 -22 -41 18 -22 20 -40 43 -40 52 0 17 63 -38 81 -70z
m1614 72 c-9 -14 8 -12 24 3 11 10 13 10 7 0 -5 -9 0 -13 13 -13 26 0 28 -16
4 -22 -10 -3 -53 0 -96 5 -55 7 -81 7 -85 0 -5 -7 -11 -6 -20 3 -11 12 -1 14
62 14 41 0 78 5 81 10 3 6 8 10 11 10 3 0 2 -4 -1 -10z m490 0 c-3 -5 -10 -10
-16 -10 -5 0 -9 5 -9 10 0 6 7 10 16 10 8 0 12 -4 9 -10z m410 0 c3 -5 1 -10
-4 -10 -6 0 -11 5 -11 10 0 6 2 10 4 10 3 0 8 -4 11 -10z m1019 -77 c-105 -97
-119 -96 -24 1 47 48 87 81 89 74 2 -7 -27 -40 -65 -75z m-1054 64 c0 -2 -15
-16 -32 -33 l-33 -29 29 33 c28 30 36 37 36 29z m-385 -17 c3 -5 -3 -10 -14
-10 -12 0 -21 5 -21 10 0 6 6 10 14 10 8 0 18 -4 21 -10z m-625 -25 c13 -14
19 -25 13 -25 -5 0 -20 11 -33 25 -13 14 -19 25 -13 25 5 0 20 -11 33 -25z
m180 -15 c13 -8 13 -10 -2 -10 -9 0 -20 5 -23 10 -8 13 5 13 25 0z m-148 -38
c11 -13 10 -14 -9 -4 -12 7 -28 10 -35 9 -7 -2 -10 -2 -5 0 4 3 5 8 2 13 -9
14 34 -2 47 -18z m103 -3 c-22 -10 -51 -18 -65 -18 -18 0 -12 6 25 19 65 24
91 24 40 -1z m465 5 c0 -2 -9 -4 -20 -4 -11 0 -20 4 -20 9 0 5 9 7 20 4 11 -3
20 -7 20 -9z m-30 -24 c12 -8 11 -10 -7 -10 -13 0 -23 5 -23 10 0 13 11 13 30
0z m-530 -10 c0 -13 -11 -13 -30 0 -12 8 -11 10 8 10 12 0 22 -4 22 -10z
m-1327 -17 c-7 -2 -19 -2 -25 0 -7 3 -2 5 12 5 14 0 19 -2 13 -5z m1796 -20
c-8 -13 -19 -18 -35 -15 -34 6 -38 29 -4 24 15 -2 31 1 35 8 4 6 9 9 12 7 2
-3 -1 -14 -8 -24z m-626 10 c-7 -2 -19 -2 -25 0 -7 3 -2 5 12 5 14 0 19 -2 13
-5z m157 -3 c0 -5 -4 -10 -10 -10 -5 0 -10 5 -10 10 0 6 5 10 10 10 6 0 10 -4
10 -10z m520 0 c0 -5 -4 -10 -10 -10 -5 0 -10 5 -10 10 0 6 5 10 10 10 6 0 10
-4 10 -10z m-457 -7 c-7 -2 -19 -2 -25 0 -7 3 -2 5 12 5 14 0 19 -2 13 -5z
m-193 -29 c0 -2 -9 0 -20 6 -11 6 -20 13 -20 16 0 2 9 0 20 -6 11 -6 20 -13
20 -16z m137 0 c-3 -3 -12 -4 -19 -1 -8 3 -5 6 6 6 11 1 17 -2 13 -5z m513 2
c0 -2 -9 -6 -20 -9 -11 -3 -18 -1 -14 4 5 9 34 13 34 5z m-60 -16 c0 -5 -4
-10 -10 -10 -5 0 -10 5 -10 10 0 6 5 10 10 10 6 0 10 -4 10 -10z m40 -19 c0
-5 -7 -12 -16 -15 -14 -5 -15 -4 -4 9 14 17 20 19 20 6z m-2036 -27 c19 -18
19 -20 6 -45 -6 -10 -20 -19 -30 -19 -17 0 -20 7 -20 40 0 44 16 52 44 24z
m171 6 c3 -5 0 -7 -9 -4 -17 7 -41 -31 -30 -48 4 -7 3 -8 -4 -4 -18 11 -14 44
6 55 22 13 29 13 37 1z m158 3 c-7 -2 -14 -21 -15 -41 l-1 -37 -4 35 c-3 19
-10 38 -16 42 -7 4 1 7 18 7 17 0 24 -3 18 -6z m90 -35 c9 -21 12 -38 7 -38
-4 0 -11 14 -15 30 -6 29 -25 42 -25 18 0 -6 -3 -8 -6 -5 -4 4 -1 13 6 22 15
18 14 20 33 -27z m2668 -3 c-9 -30 -9 -30 -10 10 -1 25 2 36 9 29 6 -6 6 -21
1 -39z m174 9 c19 -46 19 -50 -1 -33 -12 10 -20 10 -35 1 -10 -7 -19 -10 -19
-7 0 11 29 75 34 75 3 0 13 -16 21 -36z m76 -24 c5 0 12 -1 16 -2 4 -2 11 11
15 27 6 29 6 29 5 -5 -2 -25 -7 -36 -21 -38 -24 -5 -36 15 -34 53 l1 30 4 -32
c2 -18 8 -33 14 -33z m219 13 l0 -37 -29 28 -29 28 -5 -28 c-3 -22 -4 -20 -4
9 1 43 8 46 30 15 l16 -23 0 28 c1 42 21 22 21 -20z m90 43 c0 -2 -9 -6 -20
-9 -11 -3 -20 -1 -20 4 0 5 9 9 20 9 11 0 20 -2 20 -4z m-3406 -39 c2 -15 0
-27 -5 -27 -5 0 -9 14 -9 32 0 37 7 34 14 -5z m262 -20 c8 3 14 0 14 -6 0 -6
-9 -11 -20 -11 -17 0 -20 6 -18 38 1 36 1 36 5 5 3 -23 8 -30 19 -26z m2653
16 l-2 -38 -7 35 c-4 19 -8 28 -9 19 0 -9 -7 -22 -15 -28 -11 -9 -15 -8 -20 5
-9 22 -8 24 8 18 7 -3 16 2 19 10 12 30 27 16 26 -21z m278 -15 c-2 -13 -4 -5
-4 17 -1 22 1 32 4 23 2 -10 2 -28 0 -40z m-3360 20 c-3 -8 -6 -5 -6 6 -1 11
2 17 5 13 3 -3 4 -12 1 -19z m317 -17 c3 -5 -1 -11 -9 -15 -9 -3 -15 0 -15 9
0 16 16 20 24 6z m-209 -11 c-3 -5 -14 -10 -23 -10 -15 0 -15 2 -2 10 20 13
33 13 25 0z m3465 -6 c0 -2 -9 -4 -20 -4 -11 0 -20 4 -20 9 0 5 9 7 20 4 11
-3 20 -7 20 -9z"/>
<path d="M2000 4697 c0 -7 -34 -190 -51 -280 -7 -32 -10 -59 -8 -62 3 -2 32 4
64 15 70 21 67 3 29 195 -22 111 -34 157 -34 132z"/>
<path d="M1565 4080 c-3 -5 -2 -10 4 -10 5 0 13 5 16 10 3 6 2 10 -4 10 -5 0
-13 -4 -16 -10z"/>
<path d="M1103 3745 c0 -8 4 -12 9 -9 5 3 6 10 3 15 -9 13 -12 11 -12 -6z"/>
<path d="M2740 3382 c0 -45 4 -72 11 -72 7 0 8 22 4 68 -10 90 -15 91 -15 4z"/>
<path d="M2740 3255 c0 -26 4 -35 16 -35 12 0 15 6 10 23 -3 12 -6 28 -6 35 0
6 -4 12 -10 12 -5 0 -10 -16 -10 -35z"/>
<path d="M2440 3571 c0 -5 5 -13 10 -16 6 -3 10 -2 10 4 0 5 -4 13 -10 16 -5
3 -10 2 -10 -4z"/>
<path d="M4031 3597 c-52 -26 -44 -108 12 -135 57 -27 125 27 112 88 -12 53
-69 75 -124 47z"/>
<path d="M3450 3541 c0 -6 4 -13 10 -16 6 -3 7 1 4 9 -7 18 -14 21 -14 7z"/>
<path d="M3653 3383 c0 -9 4 -10 14 -2 7 6 13 12 13 14 0 1 -6 2 -13 2 -8 0
-14 -6 -14 -14z"/>
<path d="M4233 3213 c15 -2 39 -2 55 0 15 2 2 4 -28 4 -30 0 -43 -2 -27 -4z"/>
<path d="M3940 3190 c0 -5 5 -10 10 -10 6 0 10 5 10 10 0 6 -4 10 -10 10 -5 0
-10 -4 -10 -10z"/>
<path d="M2865 3104 c-242 -20 -621 -44 -701 -44 -48 0 -81 6 -107 19 l-36 18
-84 -156 c-76 -141 -82 -156 -64 -159 37 -7 571 29 607 40 19 6 76 39 125 73
115 79 158 101 242 121 103 24 213 14 343 -31 89 -31 115 -36 168 -33 54 3 61
2 46 -9 -33 -24 -125 -15 -246 23 -101 32 -122 35 -200 32 -75 -4 -95 -9 -160
-41 -40 -20 -101 -61 -135 -91 l-63 -55 65 -51 c36 -29 65 -53 65 -56 0 -2
-18 -31 -40 -65 -22 -34 -40 -74 -40 -89 0 -53 8 -54 273 -41 428 21 587 24
665 12 75 -12 138 -37 161 -65 14 -17 17 -69 6 -107 -4 -17 12 -5 57 41 121
124 188 252 188 356 0 96 -46 157 -155 204 -68 29 -268 80 -315 80 -27 0 -53
10 -89 34 -28 19 -73 39 -101 45 -66 14 -273 12 -475 -5z m675 -129 c-13 -14
-20 -28 -16 -32 4 -4 53 -17 109 -30 56 -13 130 -36 164 -53 52 -26 65 -38 84
-77 21 -43 21 -51 10 -106 -7 -32 -24 -83 -38 -112 l-26 -53 -31 23 c-134 100
-495 179 -706 155 -119 -14 -180 -41 -246 -112 -34 -36 -52 -48 -74 -48 -17 0
-30 2 -30 5 0 16 55 87 93 122 61 53 102 64 303 77 205 14 222 22 268 111 41
79 57 101 97 131 45 33 70 32 39 -1z m-565 -52 c-31 -75 -31 -74 -7 -93 13
-11 44 -22 69 -26 66 -10 207 9 239 32 38 28 87 54 92 49 2 -2 -5 -19 -17 -38
-34 -55 -67 -65 -256 -77 l-169 -10 -51 25 c-29 14 -59 33 -69 44 -16 17 -15
19 16 43 43 33 76 50 113 59 46 11 48 10 40 -8z m125 -16 c0 -13 5 -28 12 -35
15 -15 92 -16 121 -1 21 10 21 10 3 -5 -20 -16 -137 -23 -170 -10 -18 7 -20
27 -6 55 15 27 40 24 40 -4z m265 -262 c159 -23 335 -79 394 -126 29 -24 29
-24 -49 13 -138 67 -420 111 -579 91 -88 -11 -137 -29 -176 -63 -11 -10 -35
-20 -53 -22 l-32 -5 27 30 c39 40 103 76 154 86 69 14 205 12 314 -4z"/>
<path d="M2110 2729 c-96 -5 -203 -11 -236 -14 l-61 -6 -37 -78 c-20 -42 -36
-84 -36 -93 0 -9 11 -30 24 -45 28 -32 6 -32 436 -14 140 6 285 12 321 14 l67
2 -5 30 c-3 20 4 47 21 80 l25 49 -22 24 c-12 14 -40 33 -62 43 -45 21 -125
22 -435 8z m-170 -183 c0 -3 -4 -8 -10 -11 -5 -3 -10 -1 -10 4 0 6 5 11 10 11
6 0 10 -2 10 -4z m-57 -13 c-7 -2 -21 -2 -30 0 -10 3 -4 5 12 5 17 0 24 -2 18
-5z"/>
<path d="M1150 1981 c0 -5 5 -13 10 -16 6 -3 10 -2 10 4 0 5 -4 13 -10 16 -5
3 -10 2 -10 -4z"/>
<path d="M3578 2033 c7 -3 16 -2 19 1 4 3 -2 6 -13 5 -11 0 -14 -3 -6 -6z"/>
<path d="M3438 2023 c6 -2 18 -2 25 0 6 3 1 5 -13 5 -14 0 -19 -2 -12 -5z"/>
<path d="M3689 2019 c16 -6 28 -6 35 1 7 7 -1 10 -24 9 -33 0 -34 -1 -11 -10z"/>
<path d="M3190 1880 c8 -5 20 -10 25 -10 6 0 3 5 -5 10 -8 5 -19 10 -25 10 -5
0 -3 -5 5 -10z"/>
<path d="M4315 1240 c-19 -21 -13 -39 12 -36 17 3 29 41 14 50 -4 3 -16 -3
-26 -14z m21 -9 c0 -11 -5 -17 -13 -14 -10 4 -11 9 -2 19 15 18 15 18 15 -5z"/>
<path d="M4266 1182 c-3 -5 1 -9 9 -9 8 0 12 4 9 9 -3 4 -7 8 -9 8 -2 0 -6 -4
-9 -8z"/>
<path d="M1335 1160 c-6 -10 -5 -11 18 -14 6 -1 11 -8 9 -15 -1 -7 2 -9 8 -6
8 5 6 13 -6 26 -20 22 -21 22 -29 9z"/>
<path d="M4285 1151 c-3 -5 0 -13 6 -17 7 -4 9 -3 5 4 -3 5 0 13 6 15 9 4 10
6 1 6 -6 1 -14 -3 -18 -8z"/>
<path d="M1333 1115 c0 -8 3 -13 5 -10 3 3 13 -2 22 -10 18 -16 50 -11 50 8 0
7 -4 7 -12 -1 -19 -19 -32 -14 -17 6 11 14 11 15 -1 5 -11 -10 -17 -10 -30 2
-15 13 -17 13 -17 0z"/>
<path d="M4160 1095 c-9 -10 -9 -15 -1 -15 6 0 11 5 11 11 0 5 5 7 11 4 7 -5
4 -14 -8 -28 l-18 -22 22 19 c18 15 20 22 12 33 -14 16 -14 16 -29 -2z"/>
<path d="M1429 1078 c0 -2 -2 -13 -5 -25 -4 -22 -3 -22 16 -6 18 16 18 33 -1
33 -5 0 -9 -1 -10 -2z"/>
<path d="M3975 951 c-6 -11 9 -23 19 -14 9 9 7 23 -3 23 -6 0 -12 -4 -16 -9z"/>
<path d="M1630 919 c0 -5 5 -7 10 -4 6 3 10 8 10 11 0 2 -4 4 -10 4 -5 0 -10
-5 -10 -11z"/>
<path d="M3929 913 c-7 -10 -10 -15 -5 -11 5 4 18 3 30 -3 19 -9 19 -9 4 4
-10 8 -15 17 -11 20 3 4 4 7 1 7 -3 0 -12 -8 -19 -17z"/>
<path d="M3910 885 c0 -2 6 -8 13 -14 10 -8 14 -7 14 2 0 8 -6 14 -14 14 -7 0
-13 -1 -13 -2z"/>
<path d="M1710 866 c0 -2 7 -7 16 -10 8 -3 12 -2 9 4 -6 10 -25 14 -25 6z"/>
<path d="M2317 619 c7 -7 15 -10 18 -7 3 3 -2 9 -12 12 -14 6 -15 5 -6 -5z"/>
<path d="M1100 880 c11 -11 23 -20 27 -20 3 0 -2 9 -12 20 -10 11 -22 20 -27
20 -4 0 1 -9 12 -20z"/>
<path d="M980 650 c0 -33 11 -38 30 -15 10 12 10 18 0 30 -19 23 -30 18 -30
-15z"/>
<path d="M4245 660 c-8 -13 -1 -24 14 -19 6 3 7 10 2 18 -6 10 -10 10 -16 1z"/>
<path d="M2963 4993 c15 -2 37 -2 50 0 12 2 0 4 -28 4 -27 0 -38 -2 -22 -4z"/>
<path d="M2380 4980 l-35 -9 38 3 37 2 0 -161 0 -161 53 6 52 5 3 164 3 163
-28 -7 c-31 -8 -39 -9 -68 -2 -11 3 -36 1 -55 -3z"/>
<path d="M3307 4963 c48 -5 42 13 74 -208 11 -82 22 -151 23 -153 4 -3 66 290
66 308 -1 13 -2 13 -10 -1 -14 -24 -83 -11 -88 16 -7 34 -23 45 -66 43 l-41
-1 42 -4z"/>
<path d="M3495 4931 c11 -5 30 -10 42 -10 32 -1 49 -24 57 -73 9 -60 45 -258
53 -288 6 -22 7 -21 14 15 4 22 15 99 25 172 14 100 22 133 34 137 9 2 6 4 -7
5 -17 1 -23 -5 -23 -19 0 -11 -6 -20 -12 -20 -7 0 -23 -3 -36 -6 -19 -6 -25
-1 -39 35 -17 42 -23 46 -88 56 -29 4 -35 3 -20 -4z"/>
<path d="M2997 4820 c-4 -8 -19 -83 -35 -167 l-29 -152 61 -8 c40 -5 62 -5 63
2 5 20 -54 340 -60 325z"/>
<path d="M3388 4243 c7 -3 16 -2 19 1 4 3 -2 6 -13 5 -11 0 -14 -3 -6 -6z"/>
<path d="M3432 4241 c-11 -6 -10 -10 4 -15 9 -3 19 -4 22 -1 3 3 -1 5 -9 5
-11 0 -11 2 1 10 8 5 11 10 5 10 -5 0 -16 -4 -23 -9z"/>
<path d="M3690 4185 c-10 -12 -10 -15 4 -15 9 0 16 7 16 15 0 8 -2 15 -4 15
-2 0 -9 -7 -16 -15z"/>
<path d="M3670 4150 c19 -13 30 -13 30 0 0 6 -10 10 -22 10 -19 0 -20 -2 -8
-10z"/>
<path d="M930 3226 c0 -2 9 -6 20 -9 11 -3 20 -1 20 4 0 5 -9 9 -20 9 -11 0
-20 -2 -20 -4z"/>
</g>
</svg>
